<?xml version="1.0" encoding="UTF-8"?>
<svg xmlns="http://www.w3.org/2000/svg" viewBox="0 0 676.58 200">
  <defs>
    <style>
      .cls-1 {
        fill: #30261d;
      }

      .cls-2 {
        fill: #8ec9c9;
      }

      .cls-3 {
        fill: #99d9d9;
      }
    </style>
  </defs>
  <g id="Box">
    <g>
      <path class="cls-2" d="M632.55,200c24.32,0,44.03-19.71,44.03-44.03v-68.15c0-12.14-4.92-23.14-12.88-31.1h0s0,0,0,0l-43.85-43.83h0c-7.96-7.96-18.95-12.88-31.09-12.88H43.98c-10.55,0-20.24,3.72-27.82,9.91C6.3,17.98,0,30.24,0,43.98v68.2c0,12.14,4.92,23.13,12.88,31.09,0,0,0,0,0,0l43.82,43.83h0s0,.01,0,.01c7.96,7.96,18.95,12.88,31.1,12.88h544.74Z"/>
      <rect class="cls-3" width="632.73" height="156.16" rx="44.03" ry="44.03"/>
    </g>
  </g>
  <g id="Text">
    <g>
      <path class="cls-1" d="M79.76,31.46h18.81v95.35h-18.81v-40.9h-27.75v40.9h-18.81V31.46h18.81v38.01h27.75V31.46Z"/>
      <path class="cls-1" d="M132.9,110.37h34.46v16.44h-53.27V31.46h52.48v16.44h-33.67v22.62h29.2v16.31h-29.2v23.54Z"/>
      <path class="cls-1" d="M223.77,126.81l-4.21-18.41h-24.73l-4.21,18.41h-20.52l26.83-95.35h21.31l27.09,95.35h-21.57ZM198.52,91.96h17.36l-8.68-38.14-8.68,38.14Z"/>
      <path class="cls-1" d="M271.51,110.37h30.38v16.44h-49.19V31.46h18.81v78.91Z"/>
      <path class="cls-1" d="M355.82,31.46v16.44h-21.44v78.91h-18.81V47.9h-21.57v-16.44h61.81Z"/>
      <path class="cls-1" d="M410.13,31.46h18.81v95.35h-18.81v-40.9h-27.75v40.9h-18.81V31.46h18.81v38.01h27.75V31.46Z"/>
      <path class="cls-1" d="M491.67,31.46h19.99l-28.67,59.84v35.51h-18.81v-35.38l-28.67-59.97h21.31l17.36,43.93,17.49-43.93Z"/>
    </g>
  </g>
</svg>