<?xml version="1.0" encoding="UTF-8"?>
<svg xmlns="http://www.w3.org/2000/svg" viewBox="0 0 465 400">
  <defs>
    <style>
      .cls-1 {
        fill: #61a60e;
      }

      .cls-2 {
        fill: #a2d45e;
      }
    </style>
  </defs>
  <g id="Background">
    <rect class="cls-2" width="465" height="400" transform="translate(465 400) rotate(180)"/>
  </g>
  <g id="Shapes">
    <path class="cls-1" d="M311.92,135.93c0-4.3-1.57-8.45-4.42-11.68l-7.33-8.29c-8.15-9.22-19.87-14.5-32.17-14.5h-15.27v-2.97c0-.93-.75-1.68-1.68-1.68h-7.61v-3.47h5.23c.93,0,1.68-.75,1.68-1.68v-2.97h11.24c1.02,0,1.85-.83,1.85-1.85v-16.3c0-11.09-8.99-20.08-20.08-20.08h-21.77c-11.09,0-20.08,8.99-20.08,20.08v16.3c0,1.02.83,1.85,1.85,1.85h11.24v2.97c0,.93.75,1.68,1.68,1.68h5.23v3.47h-7.61c-.93,0-1.68.75-1.68,1.68v2.97h-16.78c-10.72,0-20.93,4.6-28.03,12.63l-9.94,11.24c-2.85,3.22-4.43,7.38-4.43,11.68,0,0-.4,53.28,0,87.41.4,34.13,2.62,110.87,2.62,110.87,0,7.86,6.37,14.23,14.23,14.23h124.54c7.86,0,14.23-6.37,14.23-14.23,0,0,2.75-73.34,3.28-108.73.53-35.39,0-90.63,0-90.63Z"/>
  </g>
</svg>