<?xml version="1.0" encoding="UTF-8"?>
<svg id="Shapes" xmlns="http://www.w3.org/2000/svg" viewBox="0 0 465 400">
  <defs>
    <style>
      .cls-1 {
        fill: #00a0df;
      }
    </style>
  </defs>
  <path class="cls-1" d="M384.48,151.52c-.81-4.39-1.87-8.74-2.76-13.11-1.39.68-2.62,1.6-4.03,2.24-9.5,4.26-20.48.61-29.71-2.68-8.76-3.12-17.27-6.89-26.29-9.29-19.39-5.17-35.9-3.32-52.38,8.28-3.18,2.24-6.11,4.8-9.03,7.35-.43.01-3.06-2.68-3.62-3.17-17.48-15.44-38.28-27.62-61.55-31.77-65.87-11.73-121.7,42.68-117.57,108.1,1.75,27.66,14.6,53.84,32.13,74.78,3.28-3.04,6.54-6.09,10.2-8.68,17.21-12.16,39.65-14.71,60.23-15.52,27.46-1.08,55.1,1.62,82.38,4.74,8.75,1,17.47,2.51,26.3,2.79,31.08.99,63.74-8.36,82.6-34.36,18.6-25.64,18.68-59.65,13.12-89.69Z"/>
</svg>