<?xml version="1.0" encoding="UTF-8"?>
<svg id="Shapes" xmlns="http://www.w3.org/2000/svg" viewBox="0 0 465 400">
  <defs>
    <style>
      .cls-1 {
        fill: #97caeb;
      }
    </style>
  </defs>
  <path class="cls-1" d="M281.77,144.83c0-6.16.82-24.23-7.18-35.93-8.01-11.7-13.96-13.96-13.96-13.96v-2.26h-3.08v-6.16h4.93v-6.98h-2.46v-17.86c0-4.52-.62-8.83-8.83-8.83h-37.35c-8.21,0-8.83,4.31-8.83,8.83v17.86h-2.46v6.98h4.93v6.16h-3.08v2.26s-5.96,2.26-13.96,13.96c-8.01,11.7-7.18,29.77-7.18,35.93s.62,45.58,6.78,73.3c6.16,27.72,1.44,50.1-1.44,67.14-2.87,17.04-3.7,25.87-3.7,38.19s3.29,16.63,15.6,20.53c12.32,3.9,32.02,3.08,32.02,3.08,0,0,19.7.82,32.02-3.08,12.32-3.9,15.6-8.21,15.6-20.53s-.82-21.15-3.7-38.19c-2.87-17.04-7.6-39.42-1.44-67.14,6.16-27.72,6.78-67.14,6.78-73.3Z"/>
</svg>