<?xml version="1.0" encoding="UTF-8"?>
<svg id="Shapes" xmlns="http://www.w3.org/2000/svg" viewBox="0 0 465 400">
  <defs>
    <style>
      .cls-1 {
        fill: #97caeb;
      }
    </style>
  </defs>
  <path class="cls-1" d="M183.88,99.87c-8.53,1.53-16.89,4.27-25.26,8.05-8.37,3.86-16.43,8.69-24.25,14.4-7.74,5.79-15.1,12.39-21.9,19.72-6.8,7.32-12.91,15.29-18.3,23.82-5.4,8.53-9.86,17.46-13.37,26.88-3.6,9.41-5.94,18.99-7.27,28.81-1.25,9.82-1.17,19.8.39,29.78,1.49,9.98,4.22,18.59,8.13,25.67,3.83,7.24,8.6,13.04,14.16,17.7,5.48,4.59,11.58,8.13,18.22,10.54,6.57,2.41,13.37,3.94,20.41,4.51,7.12.56,14,.4,20.88-.48,6.88-.89,13.37-2.41,19.4-4.43,6.1-2.01,11.42-4.43,16.11-7.16,11.65-7,21.98-12.39,31.05-16.09,9.07-3.78,16.97-6.12,23.78-7.24,6.73-1.05,12.36-1.05,16.97,0,4.61.97,8.21,2.82,10.87,5.31,2.66,2.66,4.38,5.63,5.32,9.25.94,3.54,1.01,7.36.39,11.3l.24-.04c11.03-2.09,21.35-5.55,30.97-10.38,9.7-4.91,18.61-10.78,26.75-17.86,8.21-7,15.49-14.73,21.98-23.34,6.49-8.53,12.12-17.46,16.74-26.96,4.69-9.33,8.37-18.83,11.11-28.49,2.66-9.74,4.22-19.15,4.77-28.33.55-9.17-.08-17.95-1.88-26.07-1.8-8.13-4.85-15.45-9.15-21.97-4.77-6.92-10.17-12.31-16.19-16.34-6.02-3.94-12.51-6.76-19.32-8.37-6.8-1.61-13.77-2.33-20.88-2.09-7.04.16-14.08,1.05-20.96,2.5-6.8,1.45-13.37,3.22-19.48,5.39-6.1,2.09-11.58,4.27-16.42,6.52-4.85,2.17-8.84,4.18-11.97,5.95-9.7,5.39-18.22,9.34-25.65,11.83-7.43,2.49-13.84,3.86-19.16,4.02-5.4.16-9.93-.48-13.53-2.01-3.6-1.53-6.41-3.7-8.45-6.28-2.03-2.74-3.44-5.63-4.22-8.77-.78-3.14-1.02-6.28-.78-9.33"/>
</svg>