<?xml version="1.0" encoding="UTF-8"?>
<svg id="Shapes" xmlns="http://www.w3.org/2000/svg" viewBox="0 0 465 400">
  <defs>
    <style>
      .cls-1 {
        fill: #cb8bda;
      }
    </style>
  </defs>
  <path class="cls-1" d="M232.5,324.25s44.81,1.15,49.27,0c4.46-1.15,7.09-5.38,8.99-11.51,1.64-5.31,4.9-39.48,5.03-55.75.15-18.2-3.46-43.75-6.2-54.87-3.42-13.9-11.83-39.35-11.99-45.25-.16-6.03,4.26-14.23,6.77-20.3,1.96-4.73,2.6-13.94,2.04-20.55-.82-9.54-2.43-19.91-5.16-28.24-1.23-3.76-4.54-6.94-9.87-8.45-8.67-2.47-23.85-4.07-38.89-4.07-15.04,0-30.22,1.6-38.89,4.07-5.33,1.52-8.64,4.69-9.87,8.45-2.72,8.33-4.34,18.7-5.16,28.24-.56,6.6.08,15.82,2.04,20.55,2.51,6.07,6.93,14.27,6.77,20.3-.16,5.9-8.57,31.35-11.99,45.25-2.73,11.12-6.35,36.67-6.2,54.87.14,16.27,3.39,50.44,5.03,55.75,1.9,6.13,4.53,10.36,8.99,11.51,4.46,1.15,49.27,0,49.27,0Z"/>
</svg>