<?xml version="1.0" encoding="UTF-8"?>
<svg xmlns="http://www.w3.org/2000/svg" viewBox="0 0 569.42 200">
  <defs>
    <style>
      .cls-1 {
        fill: #30261d;
      }

      .cls-2 {
        fill: #94c256;
      }

      .cls-3 {
        fill: #a2d45e;
      }
    </style>
  </defs>
  <g id="Box">
    <g>
      <path class="cls-2" d="M525.39,200c24.32,0,44.03-19.71,44.03-44.03v-68.15c0-12.14-4.92-23.14-12.88-31.1h0s0,0,0,0l-43.85-43.83h0c-7.96-7.96-18.95-12.88-31.09-12.88H43.98c-10.55,0-20.24,3.72-27.82,9.91C6.3,17.98,0,30.24,0,43.98v68.2c0,12.14,4.92,23.13,12.88,31.09,0,0,0,0,0,0l43.82,43.83h0s0,.01,0,.01c7.96,7.96,18.95,12.88,31.1,12.88h437.58Z"/>
      <rect class="cls-3" width="525.57" height="156.16" rx="44.03" ry="44.03"/>
    </g>
  </g>
  <g id="Text">
    <g>
      <path class="cls-1" d="M84.59,39.75c5.44,5.52,8.15,13.59,8.15,24.2s-2.72,18.54-8.15,24.07c-5.44,5.52-13.2,8.29-23.28,8.29h-9.21v30.51h-18.81V31.46h28.01c10.08,0,17.84,2.76,23.28,8.29ZM70.12,76.05c2.37-2.72,3.55-6.75,3.55-12.1s-1.18-9.51-3.55-12.23c-2.37-2.72-5.79-4.08-10.26-4.08h-7.76v32.49h7.76c4.47,0,7.89-1.36,10.26-4.08Z"/>
      <path class="cls-1" d="M127.99,92.49h-6.97v34.33h-18.81V31.46h28.41c10,0,17.6,2.59,22.82,7.76,5.22,5.17,7.83,12.76,7.83,22.75,0,13.85-4.95,22.8-14.86,26.83l18.94,38.01h-22.23l-15.12-34.33ZM121.02,76.44h7.5c4.56,0,7.98-1.16,10.26-3.49,2.28-2.32,3.42-6.03,3.42-11.11s-1.14-8.75-3.42-10.98c-2.28-2.24-5.7-3.35-10.26-3.35h-7.5v28.93Z"/>
      <path class="cls-1" d="M178.69,116.16c-6.01-8.33-9.01-20.69-9.01-37.09s3-28.63,9.01-36.96c6-8.33,14.88-12.49,26.63-12.49s20.93,4.17,27.03,12.49c6.09,8.33,9.14,20.65,9.14,36.96s-3.05,28.76-9.14,37.09c-6.1,8.33-15.1,12.49-27.03,12.49s-20.63-4.16-26.63-12.49ZM218.27,104.26c2.76-5.3,4.14-13.7,4.14-25.19s-1.38-19.86-4.14-25.12c-2.76-5.26-7.04-7.89-12.82-7.89s-9.91,2.63-12.63,7.89c-2.72,5.26-4.08,13.63-4.08,25.12s1.36,19.99,4.08,25.25c2.72,5.26,6.93,7.89,12.63,7.89s10.06-2.65,12.82-7.96Z"/>
      <path class="cls-1" d="M259.9,120.7c-5.44-5.3-8.15-12.91-8.15-22.82V31.46h18.81v66.29c0,4.73,1.1,8.33,3.29,10.78,2.19,2.46,5.3,3.68,9.34,3.68s7.04-1.23,9.27-3.68c2.24-2.45,3.35-6.05,3.35-10.78V31.46h18.54v66.42c0,9.82-2.78,17.41-8.35,22.75-5.57,5.35-13.22,8.02-22.95,8.02s-17.71-2.65-23.15-7.96Z"/>
      <path class="cls-1" d="M385.76,42.97c6.31,7.67,9.47,19.66,9.47,35.97s-3.16,28.47-9.47,36.23c-6.31,7.76-16.04,11.64-29.2,11.64h-27.88V31.46h27.88c13.15,0,22.88,3.84,29.2,11.51ZM371.62,103.14c3.03-4.91,4.54-12.98,4.54-24.2s-1.51-18.98-4.54-23.81c-3.02-4.82-7.96-7.23-14.8-7.23h-9.34v62.6h9.34c6.84,0,11.77-2.45,14.8-7.37Z"/>
    </g>
  </g>
</svg>