<?xml version="1.0" encoding="UTF-8"?>
<svg xmlns="http://www.w3.org/2000/svg" viewBox="0 0 1028.11 200">
  <defs>
    <style>
      .cls-1 {
        fill: #30261d;
      }

      .cls-2 {
        fill: #97caeb;
      }

      .cls-3 {
        fill: #88b6d4;
      }
    </style>
  </defs>
  <g id="Box">
    <path class="cls-3" d="M984.08,200c24.32,0,44.03-19.71,44.03-44.03v-68.15c0-12.14-4.92-23.14-12.88-31.1h0s0,0,0,0l-43.85-43.83h0c-7.96-7.96-18.95-12.88-31.09-12.88H43.98c-10.55,0-20.24,3.72-27.82,9.91C6.3,17.98,0,30.24,0,43.98v68.2c0,12.14,4.92,23.13,12.88,31.09,0,0,0,0,0,0l43.82,43.83h0s0,.01,0,.01c7.96,7.96,18.95,12.88,31.1,12.88h896.27Z"/>
    <rect class="cls-2" y="0" width="984.26" height="156.16" rx="44.03" ry="44.03"/>
  </g>
  <g id="Text">
    <g>
      <path class="cls-1" d="M38.27,116.09c-6.09-8.37-9.14-20.58-9.14-36.63s3.2-28.58,9.6-37.09c6.4-8.5,15.3-12.76,26.7-12.76,6.14,0,11.42,1.14,15.85,3.42,4.43,2.28,8.39,5.44,11.9,9.47l-11.84,11.97c-2.02-2.98-4.25-5.13-6.71-6.44-2.46-1.32-5.17-1.97-8.15-1.97-6.14,0-10.72,2.7-13.74,8.09-3.02,5.39-4.54,13.79-4.54,25.19s1.49,19.51,4.47,24.86c2.98,5.35,7.63,8.02,13.94,8.02,6.75,0,11.97-3.16,15.65-9.47l12.1,10.65c-2.98,4.82-6.99,8.57-12.03,11.24-5.04,2.67-10.98,4.01-17.82,4.01-11.4,0-20.14-4.19-26.24-12.56Z"/>
      <path class="cls-1" d="M106.92,116.16c-6.01-8.33-9.01-20.69-9.01-37.09s3-28.63,9.01-36.96c6-8.33,14.88-12.49,26.63-12.49s20.93,4.17,27.03,12.49c6.09,8.33,9.14,20.65,9.14,36.96s-3.05,28.76-9.14,37.09c-6.1,8.33-15.1,12.49-27.03,12.49s-20.63-4.16-26.63-12.49ZM146.51,104.26c2.76-5.3,4.14-13.7,4.14-25.19s-1.38-19.86-4.14-25.12c-2.76-5.26-7.04-7.89-12.82-7.89s-9.91,2.63-12.63,7.89c-2.72,5.26-4.08,13.63-4.08,25.12s1.36,19.99,4.08,25.25c2.72,5.26,6.92,7.89,12.63,7.89s10.06-2.65,12.82-7.96Z"/>
      <path class="cls-1" d="M199.97,110.37h30.38v16.44h-49.19V31.46h18.81v78.91Z"/>
      <path class="cls-1" d="M256.91,110.37h30.38v16.44h-49.19V31.46h18.81v78.91Z"/>
      <path class="cls-1" d="M340.56,126.81l-4.21-18.41h-24.73l-4.21,18.41h-20.52l26.83-95.35h21.31l27.09,95.35h-21.57ZM315.31,91.96h17.36l-8.68-38.14-8.68,38.14Z"/>
      <path class="cls-1" d="M424.93,85.58c2.58,3.81,3.88,8.83,3.88,15.06,0,8.51-2.37,14.99-7.1,19.46-4.73,4.47-11.4,6.71-19.99,6.71h-32.22V31.46h29.86c8.68,0,15.43,2.13,20.25,6.38,4.82,4.25,7.23,10.46,7.23,18.61,0,5.52-1.14,10.15-3.42,13.88-2.28,3.73-5.48,6.29-9.6,7.69,4.82,1.23,8.53,3.75,11.11,7.56ZM388.3,47.51v22.88h6.97c4.29,0,7.45-.92,9.47-2.76,2.02-1.84,3.03-4.73,3.03-8.68s-1.01-6.84-3.03-8.68c-2.02-1.84-5.17-2.76-9.47-2.76h-6.97ZM406.78,107.81c1.97-1.97,2.96-5.06,2.96-9.27s-.99-7.15-2.96-9.07c-1.97-1.93-5.02-2.89-9.14-2.89h-9.34v24.2h9.34c4.12,0,7.17-.99,9.14-2.96Z"/>
      <path class="cls-1" d="M444.92,116.16c-6.01-8.33-9.01-20.69-9.01-37.09s3-28.63,9.01-36.96c6-8.33,14.88-12.49,26.63-12.49s20.93,4.17,27.03,12.49c6.09,8.33,9.14,20.65,9.14,36.96s-3.05,28.76-9.14,37.09c-6.09,8.33-15.1,12.49-27.03,12.49s-20.63-4.16-26.63-12.49ZM484.51,104.26c2.76-5.3,4.14-13.7,4.14-25.19s-1.38-19.86-4.14-25.12-7.04-7.89-12.82-7.89-9.91,2.63-12.63,7.89c-2.72,5.26-4.08,13.63-4.08,25.12s1.36,19.99,4.08,25.25c2.72,5.26,6.93,7.89,12.63,7.89s10.06-2.65,12.82-7.96Z"/>
      <path class="cls-1" d="M544.94,92.49h-6.97v34.33h-18.81V31.46h28.41c10,0,17.6,2.59,22.82,7.76,5.22,5.17,7.83,12.76,7.83,22.75,0,13.85-4.95,22.8-14.86,26.83l18.94,38.01h-22.23l-15.12-34.33ZM537.97,76.44h7.5c4.56,0,7.98-1.16,10.26-3.49,2.28-2.32,3.42-6.03,3.42-11.11s-1.14-8.75-3.42-10.98c-2.28-2.24-5.7-3.35-10.26-3.35h-7.5v28.93Z"/>
      <path class="cls-1" d="M636.21,126.81l-4.21-18.41h-24.73l-4.21,18.41h-20.52l26.83-95.35h21.31l27.09,95.35h-21.57ZM610.96,91.96h17.36l-8.68-38.14-8.68,38.14Z"/>
      <path class="cls-1" d="M713.28,31.46v16.44h-21.44v78.91h-18.81V47.9h-21.57v-16.44h61.81Z"/>
      <path class="cls-1" d="M721.04,31.46h18.81v95.35h-18.81V31.46Z"/>
      <path class="cls-1" d="M803.23,31.46h20.25l-27.62,95.35h-21.04l-27.62-95.35h20.52l18.15,73.78,17.36-73.78Z"/>
      <path class="cls-1" d="M849.66,110.37h34.46v16.44h-53.26V31.46h52.48v16.44h-33.67v22.62h29.2v16.31h-29.2v23.54Z"/>
    </g>
  </g>
</svg>