<?xml version="1.0" encoding="UTF-8"?>
<svg xmlns="http://www.w3.org/2000/svg" viewBox="0 0 459.9 200">
  <defs>
    <style>
      .cls-1 {
        fill: #30261d;
      }

      .cls-2 {
        fill: #94c256;
      }

      .cls-3 {
        fill: #a2d45e;
      }
    </style>
  </defs>
  <g id="Box">
    <path class="cls-2" d="M415.87,200c24.32,0,44.03-19.71,44.03-44.03v-67.89c0-12.22-4.95-23.28-12.96-31.28h0s0,0,0,0l-43.85-43.83h0c-8-8.01-19.06-12.96-31.28-12.96H44.24c-10.62,0-20.36,3.74-27.98,9.97C6.33,18.09,0,30.42,0,44.24v67.68c0,12.21,4.95,23.27,12.95,31.28,0,0,0,0,0,0l43.82,43.83h0s0,.01,0,.01c8.01,8.01,19.07,12.96,31.28,12.96h327.81Z"/>
    <rect class="cls-3" width="416.05" height="156.16" rx="44.03" ry="44.03"/>
  </g>
  <g id="Text">
    <g>
      <path class="cls-1" d="M96.2,73.68v45.37c-3.6,2.63-7.98,4.89-13.15,6.77-5.17,1.88-10.87,2.83-17.1,2.83-12.28,0-21.48-4.08-27.62-12.23-6.14-8.15-9.21-20.17-9.21-36.04s3.37-29.17,10.13-37.81c6.75-8.64,16.13-12.95,28.14-12.95,6.4,0,11.88,1.16,16.44,3.49,4.56,2.32,8.64,5.55,12.23,9.67l-11.84,11.97c-2.28-2.98-4.65-5.17-7.1-6.58-2.46-1.4-5.31-2.1-8.55-2.1-6.66,0-11.73,2.81-15.19,8.42-3.46,5.61-5.19,13.99-5.19,25.12,0,21.75,6.58,32.62,19.73,32.62,3.24,0,6.4-.61,9.47-1.84v-20.25h-14.07v-16.44h32.88Z"/>
      <path class="cls-1" d="M134.34,92.49h-6.97v34.33h-18.81V31.46h28.41c10,0,17.6,2.59,22.82,7.76,5.22,5.17,7.83,12.76,7.83,22.75,0,13.85-4.95,22.8-14.86,26.83l18.94,38.01h-22.23l-15.12-34.33ZM127.37,76.44h7.5c4.56,0,7.98-1.16,10.26-3.49,2.28-2.32,3.42-6.03,3.42-11.11s-1.14-8.75-3.42-10.98c-2.28-2.24-5.7-3.35-10.26-3.35h-7.5v28.93Z"/>
      <path class="cls-1" d="M185.04,116.16c-6.01-8.33-9.01-20.69-9.01-37.09s3-28.63,9.01-36.96c6-8.33,14.88-12.49,26.63-12.49s20.93,4.17,27.03,12.49c6.09,8.33,9.14,20.65,9.14,36.96s-3.05,28.76-9.14,37.09c-6.1,8.33-15.1,12.49-27.03,12.49s-20.63-4.16-26.63-12.49ZM224.63,104.26c2.76-5.3,4.14-13.7,4.14-25.19s-1.38-19.86-4.14-25.12c-2.76-5.26-7.04-7.89-12.82-7.89s-9.91,2.63-12.63,7.89c-2.72,5.26-4.08,13.63-4.08,25.12s1.36,19.99,4.08,25.25c2.72,5.26,6.93,7.89,12.63,7.89s10.06-2.65,12.82-7.96Z"/>
      <path class="cls-1" d="M342.27,31.46h19.33l-22.09,95.35h-20.39l-12.63-71.81-13.15,71.81h-19.86l-21.83-95.35h19.99l12.63,69.31,12.36-69.31h20.65l12.36,69.57,12.63-69.57Z"/>
    </g>
  </g>
</svg>