<?xml version="1.0" encoding="UTF-8"?>
<svg id="Shapes" xmlns="http://www.w3.org/2000/svg" version="1.1" viewBox="0 0 465 400">
  <!-- Generator: Adobe Illustrator 29.0.1, SVG Export Plug-In . SVG Version: 2.1.0 Build 192)  -->
  <defs>
    <style>
      .st0 {
        fill: none;
      }
    </style>
  </defs>
  <path class="st0" d="M384.5,151.5c-.8-4.4-1.9-8.7-2.8-13.1-1.4.7-2.6,1.6-4,2.2-9.5,4.3-20.5.6-29.7-2.7-8.8-3.1-17.3-6.9-26.3-9.3-19.4-5.2-35.9-3.3-52.4,8.3-3.2,2.2-6.1,4.8-9,7.4-.4,0-3.1-2.7-3.6-3.2-17.5-15.4-38.3-27.6-61.6-31.8-65.9-11.7-121.7,42.7-117.6,108.1,1.8,27.7,14.6,53.8,32.1,74.8,3.3-3,6.5-6.1,10.2-8.7,17.2-12.2,39.6-14.7,60.2-15.5,27.5-1.1,55.1,1.6,82.4,4.7,8.8,1,17.5,2.5,26.3,2.8,31.1,1,63.7-8.4,82.6-34.4,18.6-25.6,18.7-59.7,13.1-89.7h0Z"/>
</svg>