<?xml version="1.0" encoding="UTF-8"?>
<svg viewBox="0 0 100 100" xmlns="http://www.w3.org/2000/svg">
 <rect width="100" height="100" rx="0" fill="#F5F5F3"/>
 <g opacity=".6" stroke="#DDDDD8" stroke-width=".8">
  <line x1="-100" y2="100"/>
  <line x1="-92" x2="8" y2="100"/>
  <line x1="-84" x2="16" y2="100"/>
  <line x1="-76" x2="24" y2="100"/>
  <line x1="-68" x2="32" y2="100"/>
  <line x1="-60" x2="40" y2="100"/>
  <line x1="-52" x2="48" y2="100"/>
  <line x1="-44" x2="56" y2="100"/>
  <line x1="-36" x2="64" y2="100"/>
  <line x1="-28" x2="72" y2="100"/>
  <line x1="-20" x2="80" y2="100"/>
  <line x1="-12" x2="88" y2="100"/>
  <line x1="-4" x2="96" y2="100"/>
  <line x1="4" x2="104" y2="100"/>
  <line x1="12" x2="112" y2="100"/>
  <line x1="20" x2="120" y2="100"/>
  <line x1="28" x2="128" y2="100"/>
  <line x1="36" x2="136" y2="100"/>
  <line x1="44" x2="144" y2="100"/>
  <line x1="52" x2="152" y2="100"/>
  <line x1="60" x2="160" y2="100"/>
  <line x1="68" x2="168" y2="100"/>
  <line x1="76" x2="176" y2="100"/>
  <line x1="84" x2="184" y2="100"/>
  <line x1="92" x2="192" y2="100"/>
  <line x1="100" x2="200" y2="100"/>
  <line x1="108" x2="208" y2="100"/>
  <line x1="116" x2="216" y2="100"/>
  <line x1="124" x2="224" y2="100"/>
  <line x1="132" x2="232" y2="100"/>
  <line x1="140" x2="240" y2="100"/>
  <line x1="148" x2="248" y2="100"/>
  <line x1="156" x2="256" y2="100"/>
  <line x1="164" x2="264" y2="100"/>
  <line x1="172" x2="272" y2="100"/>
  <line x1="180" x2="280" y2="100"/>
  <line x1="188" x2="288" y2="100"/>
  <line x1="196" x2="296" y2="100"/>
 </g>
 <rect x="20" y="20" width="60" height="4" rx="2" fill="#B4B2A9"/>
 <circle cx="18" cy="38" r="6" fill="#D3D1C7"/>
 <rect x="28" y="35" width="30" height="3" rx="2" fill="#B4B2A9"/>
 <circle cx="58" cy="38" r="6" fill="#D3D1C7"/>
 <rect x="68" y="35" width="22" height="3" rx="2" fill="#B4B2A9"/>
 <circle cx="18" cy="54" r="6" fill="#D3D1C7"/>
 <rect x="28" y="51" width="30" height="3" rx="2" fill="#B4B2A9"/>
 <circle cx="58" cy="54" r="6" fill="#D3D1C7"/>
 <rect x="68" y="51" width="22" height="3" rx="2" fill="#B4B2A9"/>
</svg>
