<?xml version="1.0" encoding="UTF-8"?>
<svg xmlns="http://www.w3.org/2000/svg" viewBox="0 0 865.37 200">
  <defs>
    <style>
      .cls-1 {
        fill: #30261d;
      }

      .cls-2 {
        fill: #94c256;
      }

      .cls-3 {
        fill: #a2d45e;
      }
    </style>
  </defs>
  <g id="Box">
    <path class="cls-2" d="M821.34,200c24.32,0,44.03-19.71,44.03-44.03v-68.15c0-12.14-4.92-23.14-12.88-31.1h0s0,0,0,0l-43.85-43.83h0c-7.96-7.96-18.95-12.88-31.09-12.88H43.98c-10.55,0-20.24,3.72-27.82,9.91C6.3,17.98,0,30.24,0,43.98v68.2c0,12.14,4.92,23.13,12.88,31.09,0,0,0,0,0,0l43.82,43.83h0s0,.01,0,.01c7.96,7.96,18.95,12.88,31.1,12.88h733.54Z"/>
    <rect class="cls-3" width="821.52" height="156.16" rx="44.03" ry="44.03"/>
  </g>
  <g id="Text">
    <g>
      <path class="cls-1" d="M87.26,31.46v16.44h-21.44v78.91h-18.81V47.9h-21.57v-16.44h61.81Z"/>
      <path class="cls-1" d="M120.79,92.49h-6.97v34.33h-18.81V31.46h28.41c10,0,17.6,2.59,22.82,7.76,5.22,5.17,7.83,12.76,7.83,22.75,0,13.85-4.95,22.8-14.86,26.83l18.94,38.01h-22.23l-15.12-34.33ZM113.82,76.44h7.5c4.56,0,7.98-1.16,10.26-3.49,2.28-2.32,3.42-6.03,3.42-11.11s-1.14-8.75-3.42-10.98c-2.28-2.24-5.7-3.35-10.26-3.35h-7.5v28.93Z"/>
      <path class="cls-1" d="M212.07,126.81l-4.21-18.41h-24.73l-4.21,18.41h-20.52l26.83-95.35h21.31l27.09,95.35h-21.57ZM186.81,91.96h17.36l-8.68-38.14-8.68,38.14Z"/>
      <path class="cls-1" d="M291.37,31.46h16.83v95.35h-24.2l-26.17-66.81v66.81h-16.83V31.46h24.2l26.17,67.34V31.46Z"/>
      <path class="cls-1" d="M317.15,118l8.94-14.47c3.16,2.89,6.29,5.06,9.4,6.51,3.11,1.45,6.42,2.17,9.93,2.17,4.29,0,7.67-1.01,10.13-3.02,2.45-2.02,3.68-4.65,3.68-7.89,0-2.63-.9-4.84-2.7-6.64-1.8-1.8-4.93-3.75-9.4-5.85-6.84-3.16-12.15-6.14-15.91-8.94-3.77-2.8-6.53-5.85-8.29-9.14-1.75-3.29-2.63-7.25-2.63-11.9,0-9.12,2.81-16.26,8.42-21.44,5.61-5.17,13.02-7.76,22.23-7.76,4.91,0,9.38.7,13.42,2.1,4.03,1.4,8.02,3.33,11.97,5.79l-8.55,14.73c-4.82-4.21-10.22-6.31-16.18-6.31-3.86,0-6.88.92-9.07,2.76-2.19,1.84-3.29,4.43-3.29,7.76,0,2.54.88,4.73,2.63,6.58,1.75,1.84,5,3.81,9.73,5.92,9.64,4.3,16.51,8.73,20.58,13.28,4.08,4.56,6.12,10.26,6.12,17.1,0,6.05-1.38,11.29-4.14,15.72-2.76,4.43-6.58,7.8-11.44,10.13s-10.37,3.49-16.51,3.49c-10.26,0-19.95-3.55-29.07-10.65Z"/>
      <path class="cls-1" d="M440.51,47.9h-33.67v27.75h28.8v16.44h-28.8v34.72h-18.81V31.46h52.48v16.44Z"/>
      <path class="cls-1" d="M453.73,116.16c-6.01-8.33-9.01-20.69-9.01-37.09s3-28.63,9.01-36.96c6-8.33,14.88-12.49,26.63-12.49s20.93,4.17,27.03,12.49c6.09,8.33,9.14,20.65,9.14,36.96s-3.05,28.76-9.14,37.09c-6.09,8.33-15.1,12.49-27.03,12.49s-20.63-4.16-26.63-12.49ZM493.32,104.26c2.76-5.3,4.14-13.7,4.14-25.19s-1.38-19.86-4.14-25.12-7.04-7.89-12.82-7.89-9.91,2.63-12.63,7.89c-2.72,5.26-4.08,13.63-4.08,25.12s1.36,19.99,4.08,25.25c2.72,5.26,6.93,7.89,12.63,7.89s10.06-2.65,12.82-7.96Z"/>
      <path class="cls-1" d="M553.75,92.49h-6.97v34.33h-18.81V31.46h28.41c10,0,17.6,2.59,22.82,7.76,5.22,5.17,7.83,12.76,7.83,22.75,0,13.85-4.95,22.8-14.86,26.83l18.94,38.01h-22.23l-15.12-34.33ZM546.78,76.44h7.5c4.56,0,7.98-1.16,10.26-3.49,2.28-2.32,3.42-6.03,3.42-11.11s-1.14-8.75-3.42-10.98c-2.28-2.24-5.7-3.35-10.26-3.35h-7.5v28.93Z"/>
      <path class="cls-1" d="M657.78,31.46h26.96v95.35h-17.49V57.5l-15.91,69.31h-18.41l-15.91-68.92v68.92h-17.49V31.46h26.96l15.65,71.02,15.65-71.02Z"/>
    </g>
  </g>
</svg>