<?xml version="1.0" encoding="UTF-8"?>
<svg xmlns="http://www.w3.org/2000/svg" viewBox="0 0 895.52 200">
  <defs>
    <style>
      .cls-1 {
        fill: #30261d;
      }

      .cls-2 {
        fill: #97caeb;
      }

      .cls-3 {
        fill: #88b6d4;
      }
    </style>
  </defs>
  <g id="Box">
    <path class="cls-3" d="M851.49,200c24.32,0,44.03-19.71,44.03-44.03v-67.89c0-12.22-4.95-23.28-12.96-31.28h0s0,0,0,0l-43.85-43.83h0c-8-8.01-19.06-12.96-31.28-12.96H44.24c-10.62,0-20.36,3.74-27.98,9.97C6.33,18.09,0,30.42,0,44.24v67.68c0,12.21,4.95,23.27,12.95,31.28,0,0,0,0,0,0l43.82,43.83h0s0,.01,0,.01c8.01,8.01,19.07,12.96,31.28,12.96h763.43Z"/>
    <rect class="cls-2" width="851.67" height="156.16" rx="44.03" ry="44.03"/>
  </g>
  <g id="Text">
    <g>
      <path class="cls-1" d="M26.63,118l8.94-14.47c3.16,2.89,6.29,5.06,9.4,6.51,3.11,1.45,6.42,2.17,9.93,2.17,4.29,0,7.67-1.01,10.13-3.02,2.45-2.02,3.68-4.65,3.68-7.89,0-2.63-.9-4.84-2.7-6.64-1.8-1.8-4.93-3.75-9.4-5.85-6.84-3.16-12.14-6.14-15.91-8.94-3.77-2.8-6.53-5.85-8.29-9.14-1.75-3.29-2.63-7.25-2.63-11.9,0-9.12,2.81-16.26,8.42-21.44,5.61-5.17,13.02-7.76,22.23-7.76,4.91,0,9.38.7,13.41,2.1,4.03,1.4,8.02,3.33,11.97,5.79l-8.55,14.73c-4.82-4.21-10.21-6.31-16.18-6.31-3.86,0-6.88.92-9.08,2.76-2.19,1.84-3.29,4.43-3.29,7.76,0,2.54.88,4.73,2.63,6.58,1.75,1.84,5,3.81,9.73,5.92,9.64,4.3,16.51,8.73,20.58,13.28,4.08,4.56,6.12,10.26,6.12,17.1,0,6.05-1.38,11.29-4.14,15.72-2.76,4.43-6.58,7.81-11.44,10.13-4.87,2.32-10.37,3.49-16.51,3.49-10.26,0-19.95-3.55-29.07-10.65Z"/>
      <path class="cls-1" d="M104.49,120.7c-5.44-5.3-8.15-12.91-8.15-22.82V31.46h18.81v66.29c0,4.73,1.1,8.33,3.29,10.78,2.19,2.46,5.3,3.68,9.34,3.68s7.04-1.23,9.27-3.68c2.24-2.45,3.35-6.05,3.35-10.78V31.46h18.54v66.42c0,9.82-2.79,17.41-8.35,22.75-5.57,5.35-13.22,8.02-22.95,8.02s-17.71-2.65-23.15-7.96Z"/>
      <path class="cls-1" d="M166.69,118l8.94-14.47c3.16,2.89,6.29,5.06,9.4,6.51,3.11,1.45,6.42,2.17,9.93,2.17,4.29,0,7.67-1.01,10.13-3.02,2.45-2.02,3.68-4.65,3.68-7.89,0-2.63-.9-4.84-2.7-6.64-1.8-1.8-4.93-3.75-9.4-5.85-6.84-3.16-12.15-6.14-15.91-8.94-3.77-2.8-6.53-5.85-8.29-9.14-1.75-3.29-2.63-7.25-2.63-11.9,0-9.12,2.81-16.26,8.42-21.44,5.61-5.17,13.02-7.76,22.23-7.76,4.91,0,9.38.7,13.42,2.1,4.03,1.4,8.02,3.33,11.97,5.79l-8.55,14.73c-4.82-4.21-10.22-6.31-16.18-6.31-3.86,0-6.88.92-9.08,2.76-2.19,1.84-3.29,4.43-3.29,7.76,0,2.54.88,4.73,2.63,6.58,1.75,1.84,5,3.81,9.73,5.92,9.64,4.3,16.51,8.73,20.58,13.28,4.08,4.56,6.12,10.26,6.12,17.1,0,6.05-1.38,11.29-4.14,15.72-2.76,4.43-6.58,7.81-11.44,10.13-4.87,2.32-10.37,3.49-16.51,3.49-10.26,0-19.95-3.55-29.07-10.65Z"/>
      <path class="cls-1" d="M290.32,31.46v16.44h-21.44v78.91h-18.81V47.9h-21.57v-16.44h61.81Z"/>
      <path class="cls-1" d="M337.67,126.82l-4.21-18.41h-24.73l-4.21,18.41h-20.52l26.83-95.35h21.31l27.09,95.35h-21.57ZM312.42,91.96h17.36l-8.68-38.14-8.68,38.14Z"/>
      <path class="cls-1" d="M366.6,31.46h18.81v95.35h-18.81V31.46Z"/>
      <path class="cls-1" d="M451.3,31.46h16.83v95.35h-24.2l-26.17-66.81v66.81h-16.83V31.46h24.2l26.17,67.34V31.46Z"/>
      <path class="cls-1" d="M529.16,126.82l-4.21-18.41h-24.73l-4.21,18.41h-20.52l26.83-95.35h21.31l27.09,95.35h-21.57ZM503.9,91.96h17.36l-8.68-38.14-8.68,38.14Z"/>
      <path class="cls-1" d="M613.52,85.58c2.58,3.81,3.88,8.83,3.88,15.06,0,8.51-2.37,14.99-7.1,19.46-4.74,4.47-11.4,6.71-19.99,6.71h-32.22V31.46h29.85c8.68,0,15.43,2.13,20.25,6.38,4.82,4.25,7.23,10.46,7.23,18.61,0,5.52-1.14,10.15-3.42,13.88-2.28,3.73-5.48,6.29-9.6,7.69,4.82,1.23,8.53,3.75,11.11,7.56ZM576.9,47.51v22.88h6.97c4.29,0,7.45-.92,9.47-2.76,2.02-1.84,3.02-4.73,3.02-8.68s-1.01-6.84-3.02-8.68c-2.02-1.84-5.17-2.76-9.47-2.76h-6.97ZM595.37,107.81c1.97-1.97,2.96-5.06,2.96-9.27s-.99-7.15-2.96-9.08c-1.97-1.93-5.02-2.89-9.14-2.89h-9.34v24.2h9.34c4.12,0,7.17-.99,9.14-2.96Z"/>
      <path class="cls-1" d="M647.39,110.38h30.38v16.44h-49.19V31.46h18.81v78.91Z"/>
      <path class="cls-1" d="M704.34,110.38h34.46v16.44h-53.26V31.46h52.48v16.44h-33.67v22.62h29.2v16.31h-29.2v23.54Z"/>
    </g>
  </g>
</svg>