<?xml version="1.0" encoding="UTF-8"?>
<svg id="Shapes" xmlns="http://www.w3.org/2000/svg" viewBox="0 0 465 400">
  <defs>
    <style>
      .cls-1 {
        fill: #f5a800;
      }
    </style>
  </defs>
  <path class="cls-1" d="M291.79,250.61c-2.7-57.04-27.41-109.02-37.2-164.7-.92-5.22-4.11-19.66-2.85-23.87.46-1.53,2.83-2.53,2.95-4.53.13-2.37-2.14-6.97-2.18-9.74-.06-4.15,4.12-8.24-4.21-9.74-3.08-.56-9.51-.75-15.78-.71-6.27-.03-12.7.16-15.78.71-8.33,1.5-4.16,5.59-4.21,9.74-.04,2.76-2.31,7.36-2.18,9.74.11,2,2.49,2.99,2.95,4.53,1.26,4.21-1.94,18.66-2.85,23.87-9.79,55.68-34.5,107.66-37.2,164.7-1.26,26.72.62,57.43,5.54,83.69,1.37,7.3,2.73,21.41,10.21,23.88,11.05,3.65,27.92,4.73,43.54,4.49,15.62.24,32.5-.84,43.54-4.49,7.48-2.47,8.84-16.58,10.21-23.88,4.92-26.26,6.8-56.96,5.54-83.69Z"/>
</svg>