<?xml version="1.0" encoding="UTF-8"?>
<svg id="Shapes" xmlns="http://www.w3.org/2000/svg" viewBox="0 0 465 400">
  <defs>
    <style>
      .cls-1 {
        fill: #ff8300;
      }
    </style>
  </defs>
  <path class="cls-1" d="M352.14,286.7h-19.39c-2.47,0-3.38-.81-3.89-3.8-.49-2.88-13.51-121.78-17.47-145.26-.47-2.76-1.98-5.23-4.24-6.9-9.79-7.23-35.33-20.01-38.76-22.56-2.37-1.76-7.04-3.11-10.76-3.11h-50.29c-3.72,0-8.39,1.35-10.76,3.11-3.43,2.55-28.97,15.32-38.76,22.56-2.25,1.67-3.77,4.13-4.24,6.9-3.96,23.48-16.98,142.38-17.47,145.26-.51,2.99-1.42,3.8-3.89,3.8h-19.39c-2.27,0-4.11,1.84-4.11,4.11s1.84,4.11,4.11,4.11h239.28c2.27,0,4.11-1.84,4.11-4.11s-1.84-4.11-4.11-4.11Z"/>
</svg>