<?xml version="1.0" encoding="UTF-8"?>
<svg xmlns="http://www.w3.org/2000/svg" viewBox="0 0 749.94 200">
  <defs>
    <style>
      .cls-1 {
        fill: #30261d;
      }

      .cls-2 {
        fill: #8ec9c9;
      }

      .cls-3 {
        fill: #99d9d9;
      }
    </style>
  </defs>
  <g id="Box">
    <path class="cls-2" d="M705.91,200c24.32,0,44.03-19.71,44.03-44.03v-68.15c0-12.14-4.92-23.14-12.88-31.1h0s0,0,0,0l-43.85-43.83h0c-7.96-7.96-18.95-12.88-31.09-12.88H43.98c-10.55,0-20.24,3.72-27.82,9.91C6.3,17.98,0,30.24,0,43.98v68.2c0,12.14,4.92,23.13,12.88,31.09,0,0,0,0,0,0l43.82,43.83h0s0,.01,0,.01c7.96,7.96,18.95,12.88,31.1,12.88h618.1Z"/>
    <rect class="cls-3" width="706.09" height="156.16" rx="44.03" ry="44.03"/>
  </g>
  <g id="Text">
    <g>
      <path class="cls-1" d="M87.26,31.47v16.44h-21.44v78.91h-18.81V47.91h-21.57v-16.44h61.81Z"/>
      <path class="cls-1" d="M120.79,92.49h-6.97v34.33h-18.81V31.47h28.41c10,0,17.6,2.59,22.82,7.76,5.22,5.17,7.83,12.76,7.83,22.75,0,13.85-4.95,22.8-14.86,26.83l18.94,38.01h-22.23l-15.12-34.33ZM113.82,76.45h7.5c4.56,0,7.98-1.16,10.26-3.49,2.28-2.32,3.42-6.03,3.42-11.11s-1.14-8.75-3.42-10.98c-2.28-2.24-5.7-3.35-10.26-3.35h-7.5v28.93Z"/>
      <path class="cls-1" d="M173.53,120.7c-5.44-5.3-8.15-12.91-8.15-22.82V31.47h18.81v66.29c0,4.73,1.1,8.33,3.29,10.78,2.19,2.46,5.3,3.68,9.34,3.68s7.04-1.23,9.27-3.68c2.24-2.45,3.35-6.05,3.35-10.78V31.47h18.54v66.42c0,9.82-2.78,17.41-8.35,22.75-5.57,5.35-13.22,8.02-22.95,8.02s-17.71-2.65-23.15-7.96Z"/>
      <path class="cls-1" d="M235.74,118.01l8.94-14.47c3.16,2.89,6.29,5.06,9.4,6.51,3.11,1.45,6.42,2.17,9.93,2.17,4.29,0,7.67-1.01,10.13-3.02,2.45-2.02,3.68-4.65,3.68-7.89,0-2.63-.9-4.84-2.7-6.64-1.8-1.8-4.93-3.75-9.4-5.85-6.84-3.16-12.15-6.14-15.91-8.94-3.77-2.81-6.53-5.85-8.29-9.14-1.75-3.29-2.63-7.25-2.63-11.9,0-9.12,2.81-16.26,8.42-21.44,5.61-5.17,13.02-7.76,22.23-7.76,4.91,0,9.38.7,13.42,2.1,4.03,1.4,8.02,3.33,11.97,5.79l-8.55,14.73c-4.82-4.21-10.22-6.31-16.18-6.31-3.86,0-6.88.92-9.07,2.76-2.19,1.84-3.29,4.43-3.29,7.76,0,2.54.88,4.73,2.63,6.58,1.75,1.84,5,3.81,9.73,5.92,9.64,4.3,16.51,8.73,20.58,13.28,4.08,4.56,6.12,10.26,6.12,17.1,0,6.05-1.38,11.29-4.14,15.72-2.76,4.43-6.58,7.8-11.44,10.13s-10.37,3.49-16.51,3.49c-10.26,0-19.95-3.55-29.07-10.65Z"/>
      <path class="cls-1" d="M359.37,31.47v16.44h-21.44v78.91h-18.81V47.91h-21.57v-16.44h61.81Z"/>
      <path class="cls-1" d="M385.93,110.38h34.46v16.44h-53.26V31.47h52.48v16.44h-33.67v22.62h29.2v16.31h-29.2v23.54Z"/>
      <path class="cls-1" d="M488.38,42.97c6.31,7.67,9.47,19.66,9.47,35.97s-3.16,28.47-9.47,36.23c-6.31,7.76-16.05,11.64-29.2,11.64h-27.88V31.47h27.88c13.15,0,22.88,3.84,29.2,11.51ZM474.24,103.14c3.02-4.91,4.54-12.98,4.54-24.2s-1.51-18.98-4.54-23.81c-3.02-4.82-7.96-7.23-14.8-7.23h-9.34v62.6h9.34c6.84,0,11.77-2.45,14.8-7.37Z"/>
    </g>
  </g>
</svg>