<?xml version="1.0" encoding="UTF-8"?>
<svg xmlns="http://www.w3.org/2000/svg" viewBox="0 0 788.41 200">
  <defs>
    <style>
      .cls-1 {
        fill: #30261d;
      }

      .cls-2 {
        fill: #f07b00;
      }

      .cls-3 {
        fill: #ff8300;
      }
    </style>
  </defs>
  <g id="Box">
    <path class="cls-2" d="M744.37,200c24.32,0,44.03-19.71,44.03-44.03v-68.15c0-12.14-4.92-23.14-12.88-31.1h0s0,0,0,0l-43.85-43.83h0c-7.96-7.96-18.95-12.88-31.09-12.88H43.98c-10.55,0-20.24,3.72-27.82,9.91C6.3,17.98,0,30.24,0,43.98v68.2c0,12.14,4.92,23.13,12.88,31.09,0,0,0,0,0,0l43.82,43.83h0s0,.01,0,.01c7.96,7.96,18.95,12.88,31.1,12.88h656.57Z"/>
    <rect class="cls-3" width="744.55" height="156.16" rx="44.03" ry="44.03"/>
  </g>
  <g id="Text">
    <g>
      <path class="cls-1" d="M78.71,126.81l-4.21-18.41h-24.73l-4.21,18.41h-20.52L51.88,31.46h21.31l27.09,95.35h-21.57ZM53.46,91.96h17.36l-8.68-38.14-8.68,38.14Z"/>
      <path class="cls-1" d="M111.4,116.09c-6.1-8.37-9.14-20.58-9.14-36.63s3.2-28.58,9.6-37.09c6.4-8.5,15.3-12.76,26.7-12.76,6.14,0,11.42,1.14,15.85,3.42,4.43,2.28,8.39,5.44,11.9,9.47l-11.84,11.97c-2.02-2.98-4.25-5.13-6.71-6.44-2.46-1.32-5.17-1.97-8.15-1.97-6.14,0-10.72,2.7-13.74,8.09s-4.54,13.79-4.54,25.19,1.49,19.51,4.47,24.86c2.98,5.35,7.63,8.02,13.94,8.02,6.75,0,11.97-3.16,15.65-9.47l12.1,10.65c-2.98,4.82-6.99,8.57-12.03,11.24-5.04,2.67-10.98,4.01-17.82,4.01-11.4,0-20.15-4.19-26.24-12.56Z"/>
      <path class="cls-1" d="M180.18,116.09c-6.09-8.37-9.14-20.58-9.14-36.63s3.2-28.58,9.6-37.09c6.4-8.5,15.3-12.76,26.7-12.76,6.14,0,11.42,1.14,15.85,3.42,4.43,2.28,8.39,5.44,11.9,9.47l-11.84,11.97c-2.02-2.98-4.25-5.13-6.71-6.44-2.46-1.32-5.17-1.97-8.15-1.97-6.14,0-10.72,2.7-13.74,8.09s-4.54,13.79-4.54,25.19,1.49,19.51,4.47,24.86c2.98,5.35,7.63,8.02,13.94,8.02,6.75,0,11.97-3.16,15.65-9.47l12.1,10.65c-2.98,4.82-6.99,8.57-12.03,11.24-5.04,2.67-10.98,4.01-17.82,4.01-11.4,0-20.15-4.19-26.24-12.56Z"/>
      <path class="cls-1" d="M262.71,110.37h34.46v16.44h-53.26V31.46h52.48v16.44h-33.67v22.62h29.2v16.31h-29.2v23.54Z"/>
      <path class="cls-1" d="M326.89,110.37h30.38v16.44h-49.19V31.46h18.81v78.91Z"/>
      <path class="cls-1" d="M383.83,110.37h34.46v16.44h-53.26V31.46h52.48v16.44h-33.67v22.62h29.2v16.31h-29.2v23.54Z"/>
      <path class="cls-1" d="M454.98,92.49h-6.97v34.33h-18.81V31.46h28.41c10,0,17.6,2.59,22.82,7.76,5.22,5.17,7.83,12.76,7.83,22.75,0,13.85-4.95,22.8-14.86,26.83l18.94,38.01h-22.23l-15.12-34.33ZM448.01,76.44h7.5c4.56,0,7.98-1.16,10.26-3.49,2.28-2.32,3.42-6.03,3.42-11.11s-1.14-8.75-3.42-10.98c-2.28-2.24-5.7-3.35-10.26-3.35h-7.5v28.93Z"/>
      <path class="cls-1" d="M546.26,126.81l-4.21-18.41h-24.73l-4.21,18.41h-20.52l26.83-95.35h21.31l27.09,95.35h-21.57ZM521.01,91.96h17.36l-8.68-38.14-8.68,38.14Z"/>
      <path class="cls-1" d="M623.33,31.46v16.44h-21.44v78.91h-18.81V47.9h-21.57v-16.44h61.81Z"/>
      <path class="cls-1" d="M649.89,110.37h34.46v16.44h-53.26V31.46h52.48v16.44h-33.67v22.62h29.2v16.31h-29.2v23.54Z"/>
    </g>
  </g>
</svg>