<?xml version="1.0" encoding="UTF-8"?>
<svg xmlns="http://www.w3.org/2000/svg" viewBox="0 0 931.02 200">
  <defs>
    <style>
      .cls-1 {
        fill: #30261d;
      }

      .cls-2 {
        fill: #97caeb;
      }

      .cls-3 {
        fill: #88b6d4;
      }
    </style>
  </defs>
  <g id="Box">
    <path class="cls-3" d="M886.99,200c24.32,0,44.03-19.71,44.03-44.03v-68.15c0-12.14-4.92-23.14-12.88-31.1h0s0,0,0,0l-43.85-43.83h0c-7.96-7.96-18.95-12.88-31.09-12.88H43.98c-10.55,0-20.24,3.72-27.82,9.91C6.3,17.98,0,30.24,0,43.98v68.2c0,12.14,4.92,23.13,12.88,31.09,0,0,0,0,0,0l43.82,43.83h0s0,.01,0,.01c7.96,7.96,18.95,12.88,31.1,12.88h799.18Z"/>
    <rect class="cls-2" y="0" width="887.17" height="156.16" rx="44.03" ry="44.03"/>
  </g>
  <g id="Text">
    <g>
      <path class="cls-1" d="M33.2,31.46h18.81v95.35h-18.81V31.46Z"/>
      <path class="cls-1" d="M117.9,31.46h16.83v95.35h-24.2l-26.17-66.81v66.81h-16.83V31.46h24.2l26.17,67.34V31.46Z"/>
      <path class="cls-1" d="M200.62,31.46h16.83v95.35h-24.2l-26.17-66.81v66.81h-16.83V31.46h24.2l26.17,67.34V31.46Z"/>
      <path class="cls-1" d="M237.91,116.16c-6.01-8.33-9.01-20.69-9.01-37.09s3-28.63,9.01-36.96c6-8.33,14.88-12.49,26.63-12.49s20.93,4.17,27.03,12.49c6.09,8.33,9.14,20.65,9.14,36.96s-3.05,28.76-9.14,37.09c-6.1,8.33-15.1,12.49-27.03,12.49s-20.63-4.16-26.63-12.49ZM277.5,104.26c2.76-5.3,4.14-13.7,4.14-25.19s-1.38-19.86-4.14-25.12c-2.76-5.26-7.04-7.89-12.82-7.89s-9.91,2.63-12.63,7.89c-2.72,5.26-4.08,13.63-4.08,25.12s1.36,19.99,4.08,25.25c2.72,5.26,6.92,7.89,12.63,7.89s10.06-2.65,12.82-7.96Z"/>
      <path class="cls-1" d="M356.08,31.46h20.25l-27.62,95.35h-21.04l-27.62-95.35h20.52l18.15,73.78,17.36-73.78Z"/>
      <path class="cls-1" d="M423.94,126.81l-4.21-18.41h-24.73l-4.21,18.41h-20.52l26.83-95.35h21.31l27.09,95.35h-21.57ZM398.69,91.96h17.36l-8.68-38.14-8.68,38.14Z"/>
      <path class="cls-1" d="M501.01,31.46v16.44h-21.44v78.91h-18.81V47.9h-21.57v-16.44h61.81Z"/>
      <path class="cls-1" d="M508.77,31.46h18.81v95.35h-18.81V31.46Z"/>
      <path class="cls-1" d="M590.96,31.46h20.25l-27.62,95.35h-21.04l-27.62-95.35h20.52l18.15,73.78,17.36-73.78Z"/>
      <path class="cls-1" d="M637.39,110.37h34.46v16.44h-53.26V31.46h52.48v16.44h-33.67v22.62h29.2v16.31h-29.2v23.54Z"/>
    </g>
  </g>
</svg>