<?xml version="1.0" encoding="UTF-8"?>
<svg id="Shapes" xmlns="http://www.w3.org/2000/svg" viewBox="0 0 465 400">
  <defs>
    <style>
      .cls-1 {
        fill: #99d9d9;
      }
    </style>
  </defs>
  <path class="cls-1" d="M255.91,192.71s-.9-54.81-1.12-63.46c-.02-.86-.04-1.71-.06-2.57-.16-7.3-.32-14.59-.49-21.89-.01-.65.11-1.22.83-1.43,1.45-.41,1.57-1.55,1.48-2.76-.1-1.23-.82-1.89-2.04-2.06-.5-.07-1-.17-1.47-.33-.98-.34-1.17-1.14-1.16-2.06.02-1.01.73-1.05,1.46-1.11.55-.04,1.1-.2,1.65-.19,1.17.03,1.57-.53,1.6-1.65.08-2.73.13-5.47.23-8.19.33-8.59.49-17.21-.13-25.81-.19-2.63-.19-2.7-2.88-2.58-2.77.13-5.52-.43-8.29-.14-2.92.31-3.35.01-3.96-2.85-.02-.1-.03-.2-.05-.3-.92-3.92-1.55-7.89-1.85-11.91-.09-1.26-.75-1.99-2.05-1.88-3.37.29-6.74.14-10.11.12-1.44,0-2.09.46-2.23,1.94-.36,4.01-.88,7.99-1.89,11.91-.73,2.85-.69,2.83-3.61,2.86-3.27.04-6.54.48-9.8.11-1.25-.14-1.69.29-1.76,1.39-.13,2.11-.34,4.22-.34,6.33.01,9.18-.21,18.36.54,27.54.25,3.03.03,3.06,3.03,3.31.75.06,1.43.13,1.49,1.1.06.93-.17,1.75-1.13,2.08-.66.23-1.38.28-2.07.43-1.14.26-1.47,1.14-1.52,2.16-.05,1.04.01,2.13,1.27,2.43,1.02.24,1.14.81,1.15,1.73.06,5.54-.22,11.07-.31,16.61-.1,6.24-1.28,71.12-1.28,71.12,0,17.82-46.84,25.8-42.35,58.14.71,5.08,1.71,11.3,2.86,18.14,2.44,14.35,17.33,91.46,17.33,91.46h91.17s14.89-77.14,17.31-91.49c1.17-6.84,2.15-13.03,2.86-18.11,4.52-32.34-42.35-40.32-42.35-58.14Z"/>
</svg>