<?xml version="1.0" encoding="UTF-8"?>
<svg xmlns="http://www.w3.org/2000/svg" viewBox="0 0 931.02 200">
  <defs>
    <style>
      .cls-1 {
        fill: #30261d;
      }

      .cls-2 {
        fill: #8ec9c9;
      }

      .cls-3 {
        fill: #99d9d9;
      }
    </style>
  </defs>
  <g id="Box">
    <path class="cls-2" d="M886.99,200c24.32,0,44.03-19.71,44.03-44.03v-68.15c0-12.14-4.92-23.14-12.88-31.1h0s0,0,0,0l-43.85-43.83h0c-7.96-7.96-18.95-12.88-31.09-12.88H43.98c-10.55,0-20.24,3.72-27.82,9.91C6.3,17.98,0,30.24,0,43.98v68.2c0,12.14,4.92,23.13,12.88,31.09,0,0,0,0,0,0l43.82,43.83h0s0,.01,0,.01c7.96,7.96,18.95,12.88,31.1,12.88h799.18Z"/>
    <rect class="cls-3" y="0" width="887.17" height="156.16" rx="44.03" ry="44.03"/>
  </g>
  <g id="Text">
    <text id="editable-text" class="cls-1" x="443.585" y="78.08" text-anchor="middle" dominant-baseline="middle" font-family="system-ui, sans-serif" font-size="56" font-weight="700"></text>
  </g>
</svg>
