<?xml version="1.0" encoding="UTF-8"?>
<svg xmlns="http://www.w3.org/2000/svg" viewBox="0 0 743.81 200">
  <defs>
    <style>
      .cls-1 {
        fill: #30261d;
      }

      .cls-2 {
        fill: #8ec9c9;
      }

      .cls-3 {
        fill: #99d9d9;
      }
    </style>
  </defs>
  <g id="Box">
    <path class="cls-2" d="M699.77,200c24.32,0,44.03-19.71,44.03-44.03v-68.15c0-12.14-4.92-23.14-12.88-31.1h0s0,0,0,0l-43.85-43.83h0c-7.96-7.96-18.95-12.88-31.09-12.88H43.98c-10.55,0-20.24,3.72-27.82,9.91C6.3,17.98,0,30.24,0,43.98v68.2c0,12.14,4.92,23.13,12.88,31.09,0,0,0,0,0,0l43.82,43.83h0s0,.01,0,.01c7.96,7.96,18.95,12.88,31.1,12.88h611.96Z"/>
    <rect class="cls-3" y="0" width="699.94" height="156.16" rx="44.03" ry="44.03"/>
  </g>
  <g id="Text">
    <g>
      <path class="cls-1" d="M33.2,31.46h18.81v95.35h-18.81V31.46Z"/>
      <path class="cls-1" d="M117.9,31.46h16.83v95.35h-24.2l-26.17-66.81v66.81h-16.83V31.46h24.2l26.17,67.34V31.46Z"/>
      <path class="cls-1" d="M155.32,116.09c-6.1-8.37-9.14-20.58-9.14-36.63s3.2-28.58,9.6-37.09c6.4-8.5,15.3-12.76,26.7-12.76,6.14,0,11.42,1.14,15.85,3.42,4.43,2.28,8.39,5.44,11.9,9.47l-11.84,11.97c-2.02-2.98-4.25-5.13-6.71-6.44-2.46-1.32-5.17-1.97-8.15-1.97-6.14,0-10.72,2.7-13.74,8.09-3.02,5.39-4.54,13.79-4.54,25.19s1.49,19.51,4.47,24.86c2.98,5.35,7.63,8.02,13.94,8.02,6.75,0,11.97-3.16,15.65-9.47l12.1,10.65c-2.98,4.82-6.99,8.57-12.03,11.25-5.04,2.67-10.98,4.01-17.82,4.01-11.4,0-20.15-4.19-26.24-12.56Z"/>
      <path class="cls-1" d="M237.84,110.37h30.38v16.44h-49.19V31.46h18.81v78.91Z"/>
      <path class="cls-1" d="M281.64,120.7c-5.44-5.3-8.15-12.91-8.15-22.82V31.46h18.81v66.29c0,4.73,1.1,8.33,3.29,10.78,2.19,2.46,5.3,3.68,9.34,3.68s7.04-1.23,9.27-3.68c2.24-2.45,3.35-6.05,3.35-10.78V31.46h18.54v66.42c0,9.82-2.78,17.41-8.35,22.75-5.57,5.35-13.22,8.02-22.95,8.02s-17.71-2.65-23.15-7.96Z"/>
      <path class="cls-1" d="M343.85,118l8.94-14.47c3.16,2.89,6.29,5.06,9.4,6.51,3.11,1.45,6.42,2.17,9.93,2.17,4.29,0,7.67-1.01,10.13-3.02,2.45-2.02,3.68-4.65,3.68-7.89,0-2.63-.9-4.84-2.7-6.64-1.8-1.8-4.93-3.75-9.4-5.85-6.84-3.16-12.15-6.14-15.91-8.94-3.77-2.8-6.53-5.85-8.29-9.14-1.75-3.29-2.63-7.25-2.63-11.9,0-9.12,2.8-16.26,8.42-21.44,5.61-5.17,13.02-7.76,22.23-7.76,4.91,0,9.38.7,13.42,2.1,4.03,1.4,8.02,3.33,11.97,5.79l-8.55,14.73c-4.82-4.21-10.22-6.31-16.18-6.31-3.86,0-6.88.92-9.07,2.76-2.19,1.84-3.29,4.43-3.29,7.76,0,2.54.88,4.73,2.63,6.58,1.75,1.84,5,3.81,9.73,5.92,9.64,4.3,16.51,8.73,20.58,13.28,4.08,4.56,6.12,10.26,6.12,17.1,0,6.05-1.38,11.29-4.14,15.72-2.76,4.43-6.58,7.8-11.44,10.13-4.87,2.32-10.37,3.49-16.51,3.49-10.26,0-19.95-3.55-29.07-10.65Z"/>
      <path class="cls-1" d="M414.74,31.46h18.81v95.35h-18.81V31.46Z"/>
      <path class="cls-1" d="M496.93,31.46h20.25l-27.62,95.35h-21.04l-27.62-95.35h20.52l18.15,73.78,17.36-73.78Z"/>
      <path class="cls-1" d="M543.36,110.37h34.46v16.44h-53.27V31.46h52.48v16.44h-33.67v22.62h29.2v16.31h-29.2v23.54Z"/>
    </g>
  </g>
</svg>