<?xml version="1.0" encoding="UTF-8"?>
<svg id="Shapes" xmlns="http://www.w3.org/2000/svg" viewBox="0 0 465 400">
  <defs>
    <style>
      .cls-1 {
        fill: #f5a800;
      }
    </style>
  </defs>
  <path class="cls-1" d="M80.62,273.35c-.25.13-.4.39-.4.67s.15.54.4.67l2.22,2.07h0s-2.22,2.07-2.22,2.07c-.25.13-.4.39-.4.67s.15.54.4.67l3.76,2.07h0s25.21,0,25.21,0l11.86-6.06h110.56s1,0,1,0h110.56s11.86,6.06,11.86,6.06h25.2s0,0,0,0l3.76-2.07c.24-.14.4-.39.4-.67s-.15-.54-.4-.67l-2.22-2.07h0s2.22-2.07,2.22-2.07c.25-.13.4-.39.4-.67s-.15-.54-.4-.67l-2.22-2.07h0s2.22-2.07,2.22-2.07c.25-.14.4-.39.4-.67s-.15-.54-.4-.67l-2.22-2.07h0s2.22-2.07,2.22-2.07c.25-.13.4-.39.4-.67s-.15-.54-.4-.67l-2.22-2.07h0s2.22-2.07,2.22-2.07c.24-.14.4-.39.4-.67s-.15-.54-.4-.67l-2.22-2.07h0s2.22-2.08,2.22-2.08c.24-.14.4-.39.4-.67s-.15-.54-.4-.67l-2.22-2.07h0s2.22-2.07,2.22-2.07c.25-.13.4-.39.4-.67s-.15-.54-.4-.67l-2.22-2.07h0s2.22-2.07,2.22-2.07c.25-.14.4-.39.4-.67s-.15-.54-.4-.67l-2.22-2.07h0s2.22-2.07,2.22-2.07c.25-.13.4-.39.4-.67s-.15-.54-.4-.67l-2.22-2.07h0s2.22-2.07,2.22-2.07c.24-.14.4-.39.4-.67s-.15-.54-.4-.67l-2.22-2.07h0s2.22-2.08,2.22-2.08c.24-.14.4-.39.4-.67s-.15-.54-.4-.67l-2.22-2.07h0s2.22-2.07,2.22-2.07c.25-.13.4-.39.4-.67s-.15-.54-.4-.67l-2.22-2.07h0s2.22-2.07,2.22-2.07c.25-.14.4-.39.4-.67s-.15-.54-.4-.67l-2.22-2.07h0s2.22-2.07,2.22-2.07c.25-.13.4-.39.4-.67s-.15-.54-.4-.67l-2.22-2.07h0s2.22-2.07,2.22-2.07c.24-.14.4-.39.4-.67s-.15-.54-.4-.67l-2.22-2.07h0s-.29,0-.29,0h.29s2.22-2.07,2.22-2.07c.25-.13.4-.39.4-.67s-.15-.54-.4-.67l-2.22-2.07h0s2.22-2.07,2.22-2.07c.25-.14.4-.39.4-.67s-.15-.54-.4-.67l-2.22-2.07h0s2.22-2.07,2.22-2.07c.25-.13.4-.39.4-.67s-.15-.54-.4-.67l-2.22-2.06h0s2.22-2.07,2.22-2.07c.25-.13.4-.39.4-.67s-.15-.54-.4-.67l-2.22-2.07h0s2.22-2.07,2.22-2.07c.25-.13.4-.39.4-.67s-.15-.54-.4-.67l-2.22-2.07h0s2.22-2.07,2.22-2.07c.25-.13.4-.39.4-.67s-.15-.54-.4-.67l-2.22-2.07h0s2.22-2.07,2.22-2.07c.25-.14.4-.39.4-.67s-.15-.54-.4-.67l-2.22-2.07h0s2.22-2.07,2.22-2.07c.25-.13.4-.39.4-.67s-.15-.54-.4-.67l-2.22-2.06h0s2.22-2.07,2.22-2.07c.25-.13.4-.39.4-.67s-.15-.54-.4-.67l-2.22-2.07h0s2.22-2.07,2.22-2.07c.25-.13.4-.39.4-.67s-.15-.54-.4-.67l-2.22-2.07h0s2.22-2.07,2.22-2.07c.25-.13.4-.39.4-.67s-.15-.54-.4-.67l-2.22-2.07h0s2.22-2.07,2.22-2.07c.25-.14.4-.39.4-.67s-.15-.54-.4-.67l-2.22-2.07h0s2.22-2.07,2.22-2.07c.25-.13.4-.39.4-.67s-.15-.54-.4-.67l-2.22-2.06h0s2.22-2.07,2.22-2.07c.25-.13.4-.39.4-.67s-.15-.54-.4-.67l-2.22-2.07h0s2.22-2.07,2.22-2.07c.25-.13.4-.39.4-.67s-.15-.54-.4-.67l-3.76-2.07h0s-25.2,0-25.2,0l-11.86,6.06h-110.56s-1,0-1,0h-110.56s-11.86-6.06-11.86-6.06h-25.21s0,0,0,0l-3.76,2.07c-.24.14-.4.39-.4.67s.15.54.4.67l2.22,2.07h0s-2.22,2.07-2.22,2.07c-.25.13-.4.39-.4.67s.15.54.4.67l2.22,2.07h0s-2.22,2.07-2.22,2.07c-.25.14-.4.39-.4.67s.15.54.4.67l2.22,2.07h0s-2.22,2.07-2.22,2.07c-.25.13-.4.39-.4.67s.15.54.4.67l2.22,2.07h0s-2.22,2.07-2.22,2.07c-.24.14-.4.39-.4.67s.15.54.4.67l2.22,2.07h0s-2.22,2.08-2.22,2.08c-.24.14-.4.39-.4.67s.15.54.4.67l2.22,2.07h0s-2.22,2.07-2.22,2.07c-.25.13-.4.39-.4.67s.15.54.4.67l2.22,2.07h0s-2.22,2.07-2.22,2.07c-.25.14-.4.39-.4.67s.15.54.4.67l2.22,2.07h0s-2.22,2.07-2.22,2.07c-.25.13-.4.39-.4.67s.15.54.4.67l2.22,2.07h0s-2.22,2.07-2.22,2.07c-.24.14-.4.39-.4.67s.15.54.4.67l2.22,2.07h0s-2.22,2.08-2.22,2.08c-.24.14-.4.39-.4.67s.15.54.4.67l2.22,2.07h0s-2.22,2.07-2.22,2.07c-.25.13-.4.39-.4.67s.15.54.4.67l2.22,2.07h0s-2.22,2.07-2.22,2.07c-.25.14-.4.39-.4.67s.15.54.4.67l2.22,2.07h0s-2.22,2.07-2.22,2.07c-.25.13-.4.39-.4.67s.15.54.4.67l2.22,2.07h0s-2.22,2.07-2.22,2.07c-.24.14-.4.39-.4.67s.15.54.4.67l2.22,2.07h0s0,0,0,0h0s-2.22,2.06-2.22,2.06c-.25.13-.4.39-.4.67s.15.54.4.67l2.22,2.07h0s-2.22,2.07-2.22,2.07c-.25.14-.4.39-.4.67s.15.54.4.67l2.22,2.07h0s-2.22,2.07-2.22,2.07c-.25.13-.4.39-.4.67s.15.54.4.67l2.22,2.06h0s-2.22,2.07-2.22,2.07c-.25.13-.4.39-.4.67s.15.54.4.67l2.22,2.07h0s-2.22,2.07-2.22,2.07c-.25.13-.4.39-.4.67s.15.54.4.67l2.22,2.07h0s-2.22,2.07-2.22,2.07c-.25.13-.4.39-.4.67s.15.54.4.67l2.22,2.07h0s-2.22,2.07-2.22,2.07c-.25.14-.4.39-.4.67s.15.54.4.67l2.22,2.07h0s-2.22,2.07-2.22,2.07c-.25.13-.4.39-.4.67s.15.54.4.67l2.22,2.06h0s-2.22,2.07-2.22,2.07c-.25.13-.4.39-.4.67s.15.54.4.67l2.22,2.07h0s-2.22,2.07-2.22,2.07c-.25.13-.4.39-.4.67s.15.54.4.67l2.22,2.07h0s-2.22,2.07-2.22,2.07c-.25.13-.4.39-.4.67s.15.54.4.67l2.22,2.07h0s-2.22,2.07-2.22,2.07c-.25.14-.4.39-.4.67s.15.54.4.67l2.22,2.07h0s-2.22,2.07-2.22,2.07c-.25.13-.4.39-.4.67s.15.54.4.67l2.22,2.06h0s-2.22,2.07-2.22,2.07Z"/>
</svg>