<?xml version="1.0" encoding="UTF-8"?>
<svg id="Lock_up" xmlns="http://www.w3.org/2000/svg" version="1.1" viewBox="0 0 1920 1080">
  <!-- Generator: Adobe Illustrator 29.3.0, SVG Export Plug-In . SVG Version: 2.1.0 Build 146)  -->
  <defs>
    <style>
      .st0 {
        fill: #30261d;
      }
    </style>
  </defs>
  <path class="st0" d="M905.1,591.9c15.2-4.5,28.3-10.7,39.3-18.5s16.5-16.7,16.5-26.8-2.3-12.9-6.9-17.9-10.6-7.4-18-7.4-16.9,3.5-25,10.6-16.5,18-25.6,32.8v-.6c0-25.7,1-50.6,2.9-74.7,2-24.1,5.3-41.4,10-51.9-.8-.2-2.5-.6-5.1-1.1s-5-.8-7.2-.8c-5.8,0-10.1,3.2-12.9,9.7-2.9,6.5-4.8,16.2-5.7,29.3-.9,13-1.4,31.8-1.4,56.2s.8,29.8,2.5,54.8l.6,9.5c-.5,2-.9,3.8-1.3,5.7-1.7,2.3-3.4,4.6-5,6.5-4.6,5.4-9.7,8.2-15.2,8.2s-5.7-2.3-7.2-6.8-2.3-10.6-2.3-18.2.4-13,1.2-20.5,1.2-11.7,1.2-12.5c.4-4.3-.9-7.9-3.8-10.6s-7-4.2-12.2-4.2c-7.8,20.5-15.7,38.6-23.7,54.1s-16.5,23.3-25.6,23.3-11.7-7-11.7-21,2-21.7,5.8-31.3,9.4-17.1,16.5-22.6,15.2-8.3,24.2-8.3,8.4.6,15.4,1.8c.8-1.8,1.2-3.8,1.2-5.8,0-7.6-6-11.4-17.9-11.4s-23.9,3.7-34,10.9c-10.2,7.3-18.2,16.9-24,29-5.8,12-8.8,25-8.8,39s0,4.8.3,7c-.6.8-1.1,1.6-1.7,2.3-5.4,6.9-11,10.3-16.8,10.3s-4.9-4-4.9-12,.7-13.6,2.2-24c1.4-14.4,2.2-23.5,2.2-27.4,0-6.8-1.3-11.9-3.8-15.2-2.6-3.4-5.9-5.1-10-5.1-6.6,0-13.5,4.6-20.8,13.9-7.3,9.2-16.2,24-26.7,44.4,2.5-20.1,3.7-34.9,3.7-44.4s-.8-15.9-2.5-19.4c-1.6-3.5-4.2-5.2-7.7-5.2-8.4,0-17.4,6.7-26.8,20.2-9.5,13.5-18,28.8-25.6,46.1l1.5-13.9c2.5-21.6,3.5-34.4,3.1-38.5-.2-3.5-2.1-6-5.5-7.4-3.5-1.4-8.7-2-15.7-1.5-1.4,16.4-2.8,35.9-4,58.4s-1.8,36.2-1.8,41.1,1.3,8.2,4,9.9,8.3,2.5,17,2.5c.8-6.8,4.1-17.2,9.9-31.3,5.7-14.1,11.8-26.8,18.2-38.4,6.4-11.5,10.7-17.2,12.9-17.2s2.2,2.5,2.2,7.4-1,15.7-3.1,30.5c-1.8,12.1-2.8,20.4-2.8,25,0,7.8,2.3,13.1,6.8,15.9,4.5,2.8,9.3,4.2,14.5,4.2,1-6.6,4.4-15.9,10.2-28s11.8-23.3,18.2-33.4c6.4-10.2,10.4-15.2,12-15.2s1.5,1.3,1.5,4-.5,7.3-1.5,13.9c-.2,1.7-.7,5.5-1.4,11.5-.7,6.1-1.1,11.7-1.1,16.8,0,21.2,7,31.7,21,31.7s13.6-2.5,19.9-7.5c2.9-2.3,5.5-4.8,7.9-7.5.9,1.8,1.9,3.6,3,5.2,5.1,7.2,12,10.8,20.6,10.8s16.6-3.8,24.7-11.5c8-7.7,15.4-18.2,22.2-31.6,1.4,12.1,4.5,21.4,9.1,27.9s10.1,9.7,16.5,9.7,13.5-2.2,19.6-6.6c1.4-1,2.7-2.1,4-3.2.5,3.8,1.3,7,2.7,9.5,2,3.7,4.4,5.5,7.1,5.5s6-2.5,8.6-7.5c2.7-5,4-13.6,4-25.7v-4.6c9.2,11.5,20.1,21.4,32.5,29.6,12.4,8.2,23.6,12.3,33.4,12.3s7.4-.7,9.4-2.2c2-1.4,4-3.7,6.3-6.8-13.3-5.8-25.5-12-36.5-18.8s-20.5-15-28.5-24.7h0l-.5-.3ZM893.1,579.9c7-11.9,14.4-21.5,22.3-28.8,7.9-7.3,14.2-10.9,18.9-10.9s3.2.7,4.2,2c.9,1.3,1.4,2.9,1.4,4.8,0,6.4-4.7,12.5-14.2,18.3s-20.3,10.7-32.7,14.6h0Z"/>
  <path class="st0" d="M1053.3,584.2c-4.9,12.3-11.6,22.1-19.9,29.4s-16.7,10.9-25.1,10.9-11.2-2.1-15.2-6.3-6.4-10-7.2-17.4c10.1-3.9,18.8-9.2,26.3-16s13.3-14,17.3-21.6,6-14.6,6-21-1.5-10.3-4.6-13.7-8-5.1-14.8-5.1c-10.1,0-19,3.6-27,10.8-7.9,7.2-14.1,16.4-18.5,27.6-4.4,11.2-6.6,22.5-6.6,34s3.6,26.3,10.8,34.5,16.7,12.3,28.7,12.3,18.2-2.7,26.8-8.2c8.6-5.4,15.6-12,20.9-19.7s8-14.3,8-19.9-2-8.9-5.8-10.8h0v.2ZM996.2,554c5-9.2,10.3-13.9,15.9-13.9s4.6,1.8,4.6,5.2-1.5,7.6-4.5,12.9c-3,5.3-6.8,10.5-11.5,15.4s-9.5,8.5-14.2,10.8c1.4-11.1,4.7-21.3,9.7-30.5h0Z"/>
  <polygon class="st0" points="413.4 479.2 381.8 598.7 349.4 479.2 313.8 479.2 282.1 598.3 250.8 479.2 215.4 479.2 264 638.8 299 638.8 331.8 516.7 364.6 638.8 399.4 638.8 448.4 479.2 413.4 479.2"/>
  <path class="st0" d="M548.3,578c0-11.2-2.1-20.8-6.4-29-4.3-8.2-10.3-14.6-18.2-19s-17-6.7-27.4-6.7-20.7,2.5-29,7.5c-8.4,5-14.9,12-19.5,21s-6.9,19.5-6.9,31.4,2.3,22.3,6.8,31.1c4.5,8.9,11.1,15.8,19.6,20.7s18.5,7.4,29.9,7.4,20.8-2.1,29.9-6.4c9.1-4.2,16.1-10,21.1-17.4l-19.8-16.3c-3.2,4.8-7.4,8.6-12.5,11.3-5.1,2.7-10.6,4.1-16.3,4.1s-13.6-2.3-18.4-6.9c-4.8-4.6-7.8-11.2-9.1-19.7h75.3c.6-3.5.9-7.8.9-13h0ZM472,570.8c1.3-7.8,4.1-13.8,8.2-18.2,4.2-4.3,9.4-6.5,15.7-6.5s11.3,2.2,15.1,6.6c3.7,4.4,5.6,10.4,5.6,18h-44.7,0Z"/>
  <polygon class="st0" points="1197.4 596.5 1126.7 479.2 1087.3 479.2 1087.3 638.8 1117.3 638.8 1117.3 522.6 1187.5 638.8 1226.9 638.8 1226.9 479.2 1197.4 479.2 1197.4 596.5"/>
  <path class="st0" d="M1354.1,578c0-11.2-2.1-20.8-6.4-29s-10.3-14.6-18.2-19-17-6.7-27.4-6.7-20.7,2.5-29.1,7.5-14.8,12-19.5,21c-4.6,9-6.9,19.5-6.9,31.4s2.3,22.3,6.8,31.1c4.6,8.9,11.1,15.8,19.6,20.7s18.5,7.4,29.9,7.4,20.8-2.1,29.9-6.4c9.1-4.2,16.1-10,21.1-17.4l-19.8-16.3c-3.2,4.8-7.4,8.6-12.6,11.3-5.1,2.7-10.6,4.1-16.3,4.1s-13.6-2.3-18.4-6.9c-4.8-4.6-7.8-11.2-9.1-19.7h75.3c.6-3.5.9-7.8.9-13h.2ZM1277.7,570.8c1.3-7.8,4.1-13.8,8.2-18.2,4.2-4.3,9.4-6.5,15.7-6.5s11.3,2.2,15.1,6.6c3.7,4.4,5.6,10.4,5.6,18h-44.7.1Z"/>
  <path class="st0" d="M1441.3,577.8c-4.9-2.2-12.2-4.9-21.9-8.1-4.6-1.5-8.7-2.9-12.3-4.2-3.7-1.3-6.3-2.6-7.9-3.8s-2.4-2.8-2.4-4.7c0-2.9,1.4-5.3,4.2-7,2.8-1.8,6.5-2.6,11-2.6s9.4,1.1,14.6,3.4c5.2,2.3,9.9,5.2,14,8.9l16.3-19.8c-6.6-5.4-13.8-9.5-21.7-12.3-7.9-2.8-15.7-4.2-23.4-4.2s-16.7,1.5-23.6,4.5-12.3,7.3-16.2,12.8-5.8,11.7-5.8,18.6,1.5,13.2,4.5,17.6c3,4.4,7.2,8,12.7,10.7,5.4,2.7,13,5.5,22.7,8.5.9.3,1.8.6,2.8.9.9.3,1.9.6,3,.9,6.4,1.8,10.9,3.3,13.3,4.7s3.6,3.5,3.6,6.3-1.5,5.3-4.5,7c-3,1.8-6.9,2.6-11.8,2.6s-11.7-1.5-18.7-4.5-13.1-7.1-18.1-12.2l-15.8,20.5c7.3,6.9,15.5,12,24.4,15.3s18.3,5,27.9,5,17.2-1.5,24.3-4.6c7.1-3.1,12.7-7.3,16.6-12.8,4-5.4,5.9-11.6,5.9-18.5s-1.7-13.9-5.2-18.5c-3.4-4.5-7.6-7.9-12.6-10.1h0v-.3Z"/>
  <path class="st0" d="M1513.3,612.9c-1.8-3.2-2.8-7.3-2.8-12.4v-51.3h24v-22.5h-24v-34.8l-31.7,9v25.8h-16.1v22.5h16.1v54.8c0,12.5,3,22,9,28.5s15.1,9.8,27.3,9.8,13-1.2,20-3.7v-22.7c-4.7,1.2-8.4,1.8-11.2,1.8-5.3,0-8.8-1.6-10.7-4.7h0Z"/>
  <rect class="st0" x="1549" y="479.2" width="31.7" height="159.5"/>
  <polygon class="st0" points="1692.5 479.2 1657.1 479.2 1634.2 510.3 1658.6 510.3 1692.5 479.2"/>
  <path class="st0" d="M1672.3,613.6c-5.1,2.7-10.6,4.1-16.3,4.1s-13.6-2.3-18.4-6.9-7.8-11.2-9.1-19.7h75.3c.6-3.5.9-7.8.9-13,0-11.2-2.1-20.8-6.4-29s-10.3-14.6-18.2-19-17-6.7-27.4-6.7-20.7,2.5-29.1,7.5-14.9,12-19.5,21-6.9,19.5-6.9,31.4,2.3,22.3,6.8,31.1c4.6,8.9,11.1,15.8,19.6,20.7s18.5,7.4,29.9,7.4,20.8-2.1,29.9-6.4c9.1-4.2,16.1-10,21.1-17.4l-19.8-16.3c-3.2,4.8-7.4,8.6-12.5,11.3h0ZM1636.5,552.6c4.2-4.3,9.4-6.5,15.7-6.5s11.3,2.2,15.1,6.6c3.7,4.4,5.6,10.4,5.6,18h-44.7c1.3-7.8,4.1-13.8,8.2-18.2h.1Z"/>
</svg>