<?xml version="1.0" encoding="UTF-8"?>
<svg id="Lock_up" xmlns="http://www.w3.org/2000/svg" version="1.1" viewBox="0 0 1920 1080">
  <!-- Generator: Adobe Illustrator 29.3.0, SVG Export Plug-In . SVG Version: 2.1.0 Build 146)  -->
  <defs>
    <style>
      .st0 {
        fill: #fff;
      }
    </style>
  </defs>
  <path class="st0" d="M1038,554.7c17.7-5.2,32.9-12.4,45.7-21.5,12.8-9.1,19.2-19.5,19.2-31.2s-2.7-15-8.1-20.8c-5.4-5.7-12.3-8.6-20.9-8.6s-19.7,4.1-29,12.4c-9.3,8.2-19.2,21-29.7,38.1v-.7c0-29.8,1.1-58.8,3.4-86.8s6.1-48.2,11.6-60.3c-1-.2-2.9-.7-5.9-1.2-3-.6-5.8-.9-8.4-.9-6.7,0-11.7,3.8-15,11.3-3.3,7.5-5.5,18.9-6.6,34-1.1,15.2-1.6,37-1.6,65.4s1,34.6,2.9,63.8l.7,11.1c-.6,2.3-1.1,4.5-1.5,6.6-2,2.7-3.9,5.3-5.8,7.5-5.4,6.3-11.3,9.5-17.7,9.5s-6.6-2.6-8.4-7.9c-1.8-5.2-2.7-12.3-2.7-21.1s.5-15.1,1.4-23.8,1.4-13.5,1.4-14.5c.5-5-1-9.1-4.5-12.4-3.5-3.2-8.2-4.8-14.2-4.8-9.1,23.9-18.3,44.8-27.6,62.8-9.3,18-19.2,27-29.7,27s-13.6-8.1-13.6-24.3,2.3-25.2,6.8-36.3c4.5-11.1,10.9-19.9,19.2-26.3,8.2-6.5,17.6-9.7,28.1-9.7s9.8.7,17.9,2.1c1-2.1,1.4-4.4,1.4-6.8,0-8.8-6.9-13.2-20.8-13.2s-27.8,4.2-39.6,12.7c-11.8,8.5-21.1,19.7-27.9,33.7-6.8,14-10.2,29.1-10.2,45.3s.2,5.6.4,8.2c-.7.9-1.3,1.8-2,2.7-6.3,8-12.8,12-19.5,12s-5.7-4.7-5.7-14,.8-15.8,2.5-27.9c1.7-16.7,2.5-27.3,2.5-31.9,0-7.9-1.5-13.8-4.5-17.7-3-3.9-6.9-5.9-11.6-5.9-7.6,0-15.7,5.4-24.2,16.1-8.5,10.7-18.8,27.9-31,51.6,2.9-23.4,4.3-40.6,4.3-51.6s-1-18.5-2.9-22.6c-1.9-4.1-4.9-6.1-9-6.1-9.8,0-20.2,7.8-31.2,23.5-11,15.6-20.9,33.5-29.7,53.5l1.8-16.1c2.9-25.1,4.1-40,3.6-44.8-.2-4.1-2.4-6.9-6.5-8.6-4.1-1.7-10.2-2.3-18.3-1.8-1.7,19.1-3.2,41.7-4.7,67.9-1.4,26.1-2.2,42.1-2.2,47.8s1.5,9.5,4.7,11.5c3.1,1.9,9.7,2.9,19.7,2.9,1-7.9,4.8-20,11.5-36.3,6.7-16.3,13.7-31.2,21.1-44.6,7.4-13.4,12.4-20.1,15-20.1s2.5,2.9,2.5,8.6-1.2,18.3-3.6,35.5c-2.2,14.1-3.2,23.8-3.2,29,0,9.1,2.6,15.2,7.9,18.4,5.2,3.2,10.9,4.8,16.8,4.8,1.2-7.6,5.1-18.5,11.8-32.6,6.7-14.1,13.7-27,21.1-38.9s12.1-17.7,14-17.7,1.8,1.6,1.8,4.7-.6,8.5-1.8,16.1c-.2,1.9-.8,6.4-1.6,13.4-.8,7-1.2,13.5-1.2,19.5,0,24.6,8.1,36.9,24.3,36.9s15.8-2.9,23.1-8.8c3.4-2.7,6.4-5.6,9.2-8.7,1,2.2,2.2,4.2,3.5,6,6,8.4,14,12.5,24,12.5s19.3-4.5,28.7-13.4,17.9-21.2,25.8-36.7c1.7,14.1,5.2,24.9,10.6,32.4,5.4,7.5,11.8,11.3,19.2,11.3s15.7-2.6,22.7-7.7c1.6-1.2,3.1-2.4,4.6-3.7.5,4.5,1.5,8.2,3.1,11,2.4,4.3,5.1,6.5,8.2,6.5s6.9-2.9,10-8.8c3.1-5.8,4.7-15.8,4.7-29.9v-5.4c10.7,13.4,23.3,24.8,37.8,34.4,14.4,9.5,27.4,14.3,38.9,14.3s8.7-.8,10.9-2.5,4.7-4.3,7.3-7.9c-15.5-6.7-29.7-14-42.4-21.8-12.8-7.9-23.8-17.4-33.1-28.7h0ZM1024,540.7c8.1-13.8,16.8-25,26-33.5,9.2-8.5,16.5-12.7,22-12.7s3.8.8,4.8,2.3c1.1,1.6,1.6,3.4,1.6,5.5,0,7.4-5.5,14.5-16.5,21.3-11,6.8-23.6,12.5-38,17h0Z"/>
  <path class="st0" d="M1152.2,613.8c10.7,0,21.1-3.2,31.2-9.5s18.1-14,24.3-22.9,9.3-16.7,9.3-23.1-2.3-10.4-6.8-12.5c-5.7,14.3-13.4,25.7-23.1,34.2-9.7,8.5-19.4,12.7-29.2,12.7s-13.1-2.5-17.7-7.3c-4.7-4.9-7.5-11.6-8.4-20.2,11.7-4.5,21.9-10.7,30.6-18.6,8.7-7.9,15.4-16.2,20.1-25.1,4.7-8.8,7-17,7-24.4s-1.8-12-5.4-15.9-9.3-5.9-17.2-5.9c-11.7,0-22.1,4.2-31.3,12.5-9.2,8.4-16.4,19-21.5,32.1-5.1,13-7.7,26.2-7.7,39.6s4.2,30.6,12.5,40.1,19.5,14.3,33.3,14.3h0ZM1143.8,510.6c5.8-10.7,12-16.1,18.4-16.1s5.4,2,5.4,6.1-1.7,8.8-5.2,15c-3.5,6.2-7.9,12.2-13.4,17.9-5.5,5.7-11,9.9-16.5,12.5,1.7-12.9,5.4-24.7,11.3-35.5h0Z"/>
  <polygon class="st0" points="726.3 435 759.1 312.9 791.9 435 826.6 435 875.7 275.5 840.7 275.5 809 395 776.7 275.5 741 275.5 709.3 394.5 678.1 275.5 642.7 275.5 691.3 435 726.3 435"/>
  <path class="st0" d="M868.2,379.4c0,11.9,2.3,22.3,6.8,31.1,4.5,8.9,11.1,15.8,19.6,20.7,8.5,4.9,18.5,7.4,29.9,7.4s20.8-2.1,29.9-6.4c9.1-4.2,16.1-10,21.1-17.4l-19.8-16.3c-3.2,4.8-7.4,8.6-12.5,11.3-5.1,2.7-10.6,4.1-16.3,4.1s-13.6-2.3-18.4-6.9-7.8-11.2-9.1-19.7h75.3c.6-3.5.9-7.9.9-13,0-11.1-2.1-20.8-6.4-29-4.3-8.2-10.3-14.6-18.2-19-7.8-4.5-17-6.7-27.4-6.7s-20.7,2.5-29,7.5c-8.4,5-14.8,12-19.5,21-4.6,9-6.9,19.5-6.9,31.4h0ZM907.5,348.9c4.2-4.3,9.4-6.5,15.7-6.5s11.3,2.2,15.1,6.6,5.6,10.4,5.6,18h-44.7c1.3-7.8,4.1-13.8,8.2-18.2h0Z"/>
  <polygon class="st0" points="770.1 758.7 699.5 641.5 660.1 641.5 660.1 801 690 801 690 684.8 760.2 801 799.6 801 799.6 641.5 770.1 641.5 770.1 758.7"/>
  <path class="st0" d="M926.8,740.3c0-11.2-2.1-20.8-6.4-29-4.3-8.2-10.3-14.6-18.2-19-7.8-4.5-17-6.7-27.4-6.7s-20.7,2.5-29,7.5c-8.4,5-14.8,12-19.5,21-4.6,9-6.9,19.5-6.9,31.4s2.3,22.3,6.8,31.1c4.5,8.9,11.1,15.8,19.6,20.7,8.5,4.9,18.5,7.4,29.9,7.4s20.8-2.1,29.9-6.4c9.1-4.2,16.1-10,21.1-17.4l-19.8-16.3c-3.2,4.8-7.4,8.6-12.5,11.3-5.1,2.7-10.6,4.1-16.3,4.1s-13.6-2.3-18.4-6.9-7.8-11.2-9.1-19.7h75.3c.6-3.5.9-7.8.9-13h0ZM850.4,733c1.3-7.8,4.1-13.8,8.2-18.2,4.2-4.3,9.4-6.5,15.7-6.5s11.3,2.2,15.1,6.6c3.7,4.4,5.6,10.4,5.6,18h-44.7,0Z"/>
  <path class="st0" d="M1014,740c-4.9-2.2-12.2-4.9-21.9-8.1-4.5-1.5-8.7-2.9-12.3-4.2-3.7-1.3-6.3-2.6-7.9-3.8-1.6-1.2-2.4-2.8-2.4-4.7,0-2.9,1.4-5.3,4.2-7,2.8-1.8,6.5-2.6,11-2.6s9.4,1.1,14.6,3.4c5.2,2.3,9.9,5.2,14,8.9l16.3-19.8c-6.6-5.4-13.8-9.5-21.7-12.3-7.8-2.8-15.7-4.2-23.4-4.2s-16.7,1.5-23.5,4.5c-6.9,3-12.3,7.3-16.2,12.8s-5.8,11.7-5.8,18.6,1.5,13.2,4.5,17.6c3,4.4,7.2,8,12.7,10.7,5.4,2.7,13,5.5,22.7,8.5.9.3,1.8.6,2.8.9,1,.3,1.9.6,3,.9,6.5,1.8,10.9,3.3,13.3,4.7,2.4,1.4,3.6,3.5,3.6,6.3s-1.5,5.3-4.5,7-6.9,2.6-11.8,2.6-11.7-1.5-18.7-4.5c-7-3-13.1-7.1-18-12.2l-15.8,20.5c7.3,6.9,15.5,12,24.4,15.3,9,3.3,18.3,5,27.9,5s17.2-1.5,24.3-4.6,12.7-7.3,16.6-12.8c4-5.4,5.9-11.6,5.9-18.5s-1.7-13.9-5.2-18.5c-3.5-4.5-7.6-7.9-12.5-10.1h0Z"/>
  <path class="st0" d="M1086,775.1c-1.8-3.2-2.8-7.3-2.8-12.4v-51.3h24v-22.5h-24v-34.8l-31.7,9v25.8h-16.1v22.5h16.1v54.8c0,12.5,3,22,9,28.5s15.1,9.8,27.3,9.8,13-1.2,20-3.7v-22.7c-4.7,1.2-8.4,1.8-11.2,1.8-5.3,0-8.8-1.6-10.7-4.7h0Z"/>
  <rect class="st0" x="1121.8" y="641.5" width="31.7" height="159.5"/>
  <polygon class="st0" points="1231.3 672.5 1265.2 641.5 1229.8 641.5 1206.9 672.5 1231.3 672.5"/>
  <path class="st0" d="M1245,775.8c-5.1,2.7-10.6,4.1-16.3,4.1s-13.6-2.3-18.4-6.9-7.8-11.2-9.1-19.7h75.3c.6-3.5.9-7.8.9-13,0-11.2-2.1-20.8-6.4-29-4.3-8.2-10.3-14.6-18.2-19-7.8-4.5-17-6.7-27.4-6.7s-20.7,2.5-29.1,7.5c-8.4,5-14.8,12-19.5,21-4.6,9-6.9,19.5-6.9,31.4s2.3,22.3,6.8,31.1c4.5,8.9,11.1,15.8,19.6,20.7,8.5,4.9,18.5,7.4,29.9,7.4s20.8-2.1,29.9-6.4c9.1-4.2,16.1-10,21.1-17.4l-19.8-16.3c-3.2,4.8-7.4,8.6-12.5,11.3h0ZM1209.2,714.8c4.2-4.3,9.4-6.5,15.7-6.5s11.3,2.2,15.1,6.6c3.7,4.4,5.6,10.4,5.6,18h-44.7c1.3-7.8,4.1-13.8,8.2-18.2h0Z"/>
</svg>