<?xml version="1.0" encoding="UTF-8"?>
<svg id="Lock_up" data-name="Lock up" xmlns="http://www.w3.org/2000/svg" viewBox="0 0 1920 1080">
  <defs>
    <style>
      .cls-1 {
        fill: #30261d;
      }
    </style>
  </defs>
  <path class="cls-1" d="M1227.84,485.82c15.19-4.52,28.29-10.68,39.28-18.49,10.98-7.8,16.48-16.74,16.48-26.8,0-6.98-2.31-12.94-6.93-17.87-4.62-4.93-10.63-7.39-18.02-7.39-8.63,0-16.94,3.54-24.95,10.63-8.01,7.09-16.54,18.02-25.57,32.81v-.62c0-25.67.97-50.58,2.93-74.71,1.95-24.13,5.29-41.44,10.01-51.91-.82-.2-2.52-.56-5.08-1.08-2.57-.51-4.98-.77-7.24-.77-5.76,0-10.06,3.23-12.94,9.7-2.88,6.47-4.77,16.23-5.7,29.27-.92,13.05-1.38,31.79-1.38,56.23,0,11.5.82,29.78,2.46,54.84l.62,9.55c-.5,1.95-.92,3.82-1.31,5.67-1.69,2.35-3.36,4.56-5.01,6.5-4.62,5.44-9.7,8.16-15.25,8.16-3.29,0-5.7-2.26-7.23-6.78-1.54-4.51-2.31-10.57-2.31-18.18,0-6.16.41-12.99,1.23-20.49.82-7.5,1.23-11.66,1.23-12.48.41-4.31-.87-7.86-3.85-10.63-2.98-2.77-7.04-4.16-12.17-4.16-7.81,20.54-15.71,38.57-23.73,54.07-8.01,15.51-16.53,23.26-25.57,23.26-7.81,0-11.71-6.98-11.71-20.95,0-11.29,1.95-21.72,5.85-31.27,3.9-9.55,9.4-17.1,16.48-22.64,7.09-5.54,15.15-8.32,24.19-8.32,3.28,0,8.42.62,15.4,1.85.82-1.85,1.23-3.8,1.23-5.85,0-7.6-5.96-11.4-17.87-11.4-12.53,0-23.88,3.65-34.04,10.94-10.17,7.29-18.18,16.94-24.03,28.96-5.85,12.01-8.78,25.01-8.78,38.97,0,2.46.13,4.79.34,7.05-.57.78-1.12,1.59-1.72,2.34-5.44,6.88-11.05,10.32-16.79,10.32-3.29,0-4.93-4-4.93-12.02,0-5.55.71-13.56,2.15-24.03,1.43-14.37,2.15-23.52,2.15-27.42,0-6.78-1.28-11.86-3.85-15.25-2.57-3.39-5.9-5.08-10.01-5.08-6.57,0-13.51,4.62-20.79,13.86-7.29,9.24-16.18,24.03-26.65,44.36,2.46-20.13,3.7-34.92,3.7-44.36s-.82-15.92-2.47-19.41c-1.64-3.49-4.21-5.24-7.7-5.24-8.42,0-17.36,6.73-26.8,20.18-9.46,13.45-17.98,28.81-25.57,46.06l1.54-13.86c2.46-21.57,3.49-34.4,3.08-38.51-.21-3.49-2.06-5.95-5.55-7.39-3.49-1.43-8.73-1.95-15.71-1.54-1.43,16.44-2.77,35.89-4,58.38-1.23,22.49-1.85,36.2-1.85,41.13s1.33,8.22,4,9.86c2.67,1.64,8.32,2.47,16.95,2.47.82-6.78,4.11-17.2,9.86-31.27,5.74-14.07,11.81-26.85,18.17-38.36,6.36-11.5,10.68-17.25,12.94-17.25,1.43,0,2.15,2.47,2.15,7.39,0,5.55-1.03,15.71-3.08,30.5-1.85,12.12-2.77,20.44-2.77,24.95,0,7.81,2.26,13.1,6.78,15.87,4.51,2.77,9.34,4.16,14.48,4.16,1.02-6.57,4.41-15.92,10.16-28.04,5.75-12.12,11.81-23.26,18.18-33.43,6.36-10.17,10.37-15.25,12.02-15.25,1.03,0,1.54,1.34,1.54,4s-.51,7.29-1.54,13.86c-.21,1.65-.67,5.5-1.38,11.55-.73,6.06-1.08,11.66-1.08,16.79,0,21.16,6.98,31.74,20.95,31.74,6.98,0,13.6-2.52,19.87-7.55,2.9-2.33,5.52-4.84,7.91-7.5.89,1.85,1.88,3.59,3.02,5.19,5.13,7.19,12.02,10.78,20.64,10.78s16.63-3.85,24.65-11.55c8.01-7.7,15.41-18.23,22.18-31.58,1.43,12.12,4.47,21.41,9.09,27.88,4.62,6.47,10.11,9.71,16.48,9.71,6.98,0,13.5-2.2,19.56-6.62,1.38-1.01,2.69-2.07,3.96-3.15.46,3.84,1.32,7.04,2.67,9.46,2.05,3.7,4.41,5.55,7.09,5.55,3.08,0,5.95-2.51,8.63-7.55,2.66-5.03,4.01-13.61,4.01-25.73v-4.62c9.24,11.5,20.07,21.36,32.5,29.58,12.42,8.21,23.57,12.32,33.43,12.32,4.31,0,7.44-.72,9.4-2.15,1.95-1.44,4.05-3.7,6.31-6.78-13.35-5.75-25.52-12.02-36.51-18.8-10.99-6.78-20.49-14.99-28.5-24.65ZM1215.83,473.81c6.98-11.91,14.43-21.51,22.34-28.81,7.91-7.29,14.22-10.94,18.94-10.94,1.85,0,3.24.67,4.16,2,.93,1.34,1.39,2.93,1.39,4.78,0,6.37-4.73,12.48-14.18,18.33-9.45,5.85-20.33,10.74-32.66,14.63Z"/>
  <path class="cls-1" d="M1376.04,478.12c-4.93,12.32-11.55,22.13-19.87,29.42-8.32,7.29-16.69,10.94-25.11,10.94-6.17,0-11.25-2.1-15.25-6.32-4.01-4.21-6.42-10.01-7.24-17.41,10.06-3.9,18.84-9.24,26.34-16.02,7.5-6.78,13.25-13.97,17.25-21.57,4.01-7.6,6.01-14.58,6.01-20.95,0-5.75-1.54-10.32-4.62-13.71-3.08-3.39-8.01-5.08-14.79-5.08-10.06,0-19.05,3.6-26.96,10.78-7.91,7.19-14.07,16.38-18.48,27.58-4.42,11.2-6.63,22.54-6.63,34.05,0,14.79,3.6,26.29,10.79,34.51,7.19,8.22,16.74,12.32,28.65,12.32,9.24,0,18.18-2.72,26.8-8.16,8.63-5.44,15.61-12.02,20.95-19.72s8.01-14.32,8.01-19.87-1.96-8.93-5.85-10.78ZM1318.88,447.93c5.03-9.24,10.33-13.86,15.87-13.86,3.08,0,4.62,1.75,4.62,5.24,0,3.29-1.5,7.6-4.47,12.94-2.98,5.35-6.83,10.47-11.55,15.41-4.73,4.93-9.45,8.52-14.18,10.78,1.44-11.09,4.67-21.26,9.7-30.5Z"/>
  <polygon class="cls-1" points="621.74 532.69 654.53 410.55 687.32 532.69 722.09 532.69 771.16 373.14 736.17 373.14 704.48 492.64 672.13 373.14 636.48 373.14 604.79 492.2 573.54 373.14 538.11 373.14 586.74 532.69 621.74 532.69"/>
  <path class="cls-1" d="M763.68,477.02c0,11.88,2.27,22.26,6.82,31.14,4.55,8.88,11.08,15.77,19.59,20.68,8.51,4.91,18.48,7.37,29.93,7.37,10.86,0,20.83-2.13,29.93-6.38,9.09-4.25,16.13-10.05,21.12-17.38l-19.81-16.29c-3.23,4.84-7.41,8.62-12.55,11.33-5.13,2.72-10.56,4.07-16.28,4.07-7.48,0-13.61-2.31-18.37-6.93-4.77-4.62-7.81-11.19-9.13-19.69h75.26c.58-3.52.88-7.85.88-12.99,0-11.15-2.13-20.83-6.38-29.05-4.26-8.21-10.31-14.56-18.16-19.04-7.85-4.47-16.98-6.71-27.4-6.71-11.01,0-20.68,2.5-29.05,7.48-8.36,4.99-14.85,12-19.47,21.02s-6.93,19.48-6.93,31.36ZM802.96,446.54c4.18-4.33,9.43-6.49,15.74-6.49s11.33,2.2,15.07,6.6c3.74,4.4,5.61,10.42,5.61,18.05h-44.68c1.32-7.78,4.07-13.82,8.25-18.15Z"/>
  <polygon class="cls-1" points="665.53 704.61 594.89 587.31 555.49 587.31 555.49 746.86 585.43 746.86 585.43 630.66 655.63 746.86 695.01 746.86 695.01 587.31 665.53 587.31 665.53 704.61"/>
  <path class="cls-1" d="M822.21,686.12c0-11.15-2.13-20.83-6.38-29.05-4.26-8.22-10.31-14.56-18.16-19.04-7.85-4.48-16.98-6.71-27.4-6.71-11.01,0-20.68,2.49-29.05,7.48-8.36,4.99-14.85,11.99-19.47,21.02-4.62,9.02-6.93,19.47-6.93,31.36s2.27,22.26,6.82,31.14c4.55,8.88,11.08,15.77,19.59,20.69,8.51,4.91,18.48,7.37,29.93,7.37,10.86,0,20.83-2.13,29.93-6.38,9.09-4.25,16.13-10.05,21.12-17.38l-19.81-16.29c-3.23,4.84-7.41,8.62-12.55,11.33-5.13,2.72-10.56,4.07-16.28,4.07-7.48,0-13.61-2.31-18.37-6.93-4.77-4.62-7.81-11.18-9.13-19.69h75.26c.58-3.52.88-7.85.88-12.98ZM745.85,678.86c1.32-7.78,4.07-13.83,8.25-18.16,4.18-4.33,9.43-6.49,15.74-6.49s11.33,2.2,15.07,6.6c3.74,4.4,5.61,10.42,5.61,18.05h-44.68Z"/>
  <path class="cls-1" d="M909.47,685.9c-4.91-2.2-12.22-4.91-21.89-8.14-4.55-1.46-8.66-2.86-12.32-4.18-3.67-1.32-6.31-2.6-7.92-3.85-1.62-1.25-2.42-2.83-2.42-4.73,0-2.93,1.39-5.28,4.18-7.04s6.46-2.64,11.01-2.64,9.42,1.14,14.63,3.41c5.2,2.28,9.87,5.25,13.97,8.91l16.28-19.81c-6.6-5.43-13.83-9.53-21.67-12.32-7.86-2.78-15.66-4.18-23.44-4.18-8.81,0-16.65,1.5-23.55,4.51-6.89,3.01-12.29,7.26-16.18,12.76s-5.83,11.7-5.83,18.6c0,7.34,1.5,13.2,4.51,17.61,3,4.4,7.23,7.96,12.65,10.67,5.42,2.72,12.98,5.54,22.67,8.47.88.3,1.8.59,2.75.88s1.94.59,2.97.88c6.45,1.76,10.89,3.34,13.31,4.73,2.42,1.4,3.63,3.49,3.63,6.27,0,2.94-1.5,5.28-4.51,7.04-3.01,1.76-6.93,2.64-11.78,2.64-5.43,0-11.66-1.5-18.7-4.51-7.04-3.01-13.06-7.08-18.05-12.22l-15.84,20.47c7.33,6.9,15.48,11.99,24.43,15.3,8.95,3.3,18.26,4.95,27.95,4.95,9.1,0,17.2-1.54,24.32-4.62,7.11-3.08,12.65-7.34,16.62-12.76,3.96-5.43,5.94-11.59,5.94-18.48,0-7.78-1.73-13.94-5.17-18.49-3.45-4.55-7.63-7.92-12.55-10.12Z"/>
  <path class="cls-1" d="M981.43,721c-1.84-3.15-2.75-7.3-2.75-12.43v-51.28h23.99v-22.45h-23.99v-34.77l-31.69,9.02v25.75h-16.06v22.45h16.06v54.8c0,12.47,3.01,21.97,9.02,28.5,6.01,6.53,15.11,9.8,27.29,9.8,6.3,0,12.98-1.25,20.02-3.74v-22.67c-4.69,1.17-8.44,1.76-11.22,1.76-5.28,0-8.84-1.57-10.67-4.73Z"/>
  <rect class="cls-1" x="1017.19" y="587.31" width="31.69" height="159.55"/>
  <polygon class="cls-1" points="1160.67 587.31 1125.24 587.31 1102.35 618.34 1126.78 618.34 1160.67 587.31"/>
  <path class="cls-1" d="M1172.77,686.12c0-11.15-2.13-20.83-6.38-29.05s-10.31-14.56-18.16-19.04c-7.85-4.48-16.98-6.71-27.4-6.71-11,0-20.68,2.49-29.05,7.48-8.36,4.99-14.86,11.99-19.47,21.02-4.62,9.02-6.94,19.47-6.94,31.36s2.27,22.26,6.82,31.14c4.55,8.88,11.08,15.77,19.59,20.69,8.5,4.91,18.48,7.37,29.93,7.37,10.85,0,20.83-2.13,29.93-6.38,9.1-4.25,16.13-10.05,21.12-17.38l-19.81-16.29c-3.22,4.84-7.41,8.62-12.54,11.33-5.13,2.72-10.56,4.07-16.28,4.07-7.48,0-13.61-2.31-18.38-6.93-4.77-4.62-7.81-11.18-9.13-19.69h75.26c.58-3.52.88-7.85.88-12.98ZM1096.41,678.86c1.32-7.78,4.07-13.83,8.25-18.16,4.18-4.33,9.43-6.49,15.74-6.49s11.34,2.2,15.07,6.6c3.74,4.4,5.61,10.42,5.61,18.05h-44.67Z"/>
</svg>