<?xml version="1.0" encoding="UTF-8"?>
<svg id="Lock_up" data-name="Lock up" xmlns="http://www.w3.org/2000/svg" viewBox="0 0 1920 1080">
  <defs>
    <style>
      .cls-1 {
        fill: #30261d;
      }
    </style>
  </defs>
  <path class="cls-1" d="M1037.97,554.67c17.67-5.25,32.88-12.41,45.66-21.49,12.77-9.07,19.16-19.46,19.16-31.16,0-8.11-2.69-15.04-8.06-20.77-5.37-5.73-12.35-8.59-20.95-8.59-10.03,0-19.7,4.12-29.01,12.35-9.31,8.24-19.22,20.95-29.72,38.14v-.72c0-29.84,1.13-58.79,3.4-86.84,2.27-28.05,6.14-48.17,11.64-60.34-.96-.24-2.93-.66-5.91-1.25-2.99-.59-5.79-.9-8.41-.9-6.69,0-11.7,3.76-15.04,11.28-3.35,7.52-5.55,18.86-6.63,34.02-1.07,15.16-1.61,36.95-1.61,65.36,0,13.37.95,34.62,2.86,63.75l.72,11.1c-.58,2.27-1.07,4.45-1.52,6.6-1.96,2.72-3.9,5.29-5.81,7.55-5.37,6.33-11.28,9.49-17.73,9.49-3.82,0-6.62-2.62-8.41-7.88-1.79-5.25-2.69-12.29-2.69-21.13,0-7.16.48-15.1,1.43-23.81.95-8.71,1.43-13.55,1.43-14.5.48-5.01-1.02-9.13-4.47-12.35-3.47-3.22-8.18-4.83-14.15-4.83-9.07,23.88-18.26,44.83-27.57,62.85-9.31,18.03-19.22,27.04-29.73,27.04-9.07,0-13.61-8.11-13.61-24.35,0-13.13,2.27-25.25,6.8-36.35,4.53-11.1,10.92-19.88,19.16-26.32,8.24-6.45,17.61-9.67,28.11-9.67,3.82,0,9.79.72,17.91,2.15.95-2.15,1.43-4.41,1.43-6.8,0-8.83-6.93-13.25-20.77-13.25-14.57,0-27.76,4.24-39.57,12.71-11.82,8.48-21.13,19.7-27.93,33.66-6.8,13.97-10.21,29.07-10.21,45.3,0,2.86.15,5.57.39,8.2-.67.9-1.3,1.85-2,2.72-6.33,8-12.84,12-19.52,12-3.82,0-5.73-4.66-5.73-13.97,0-6.45.83-15.76,2.51-27.93,1.67-16.71,2.5-27.33,2.5-31.87,0-7.88-1.49-13.79-4.47-17.73-2.99-3.94-6.87-5.91-11.64-5.91-7.64,0-15.7,5.37-24.17,16.11-8.48,10.74-18.8,27.93-30.98,51.57,2.86-23.39,4.3-40.58,4.3-51.57s-.96-18.5-2.86-22.56c-1.92-4.06-4.9-6.09-8.95-6.09-9.79,0-20.18,7.82-31.16,23.46-10.99,15.64-20.89,33.48-29.72,53.54l1.79-16.12c2.86-25.07,4.06-39.99,3.58-44.76-.24-4.06-2.39-6.92-6.45-8.59-4.06-1.67-10.15-2.27-18.26-1.79-1.68,19.1-3.22,41.72-4.66,67.86-1.43,26.14-2.15,42.08-2.15,47.81s1.55,9.55,4.65,11.46c3.1,1.91,9.67,2.87,19.7,2.87.95-7.88,4.77-19.99,11.46-36.35,6.68-16.35,13.73-31.21,21.13-44.59,7.4-13.37,12.41-20.06,15.04-20.06,1.67,0,2.51,2.87,2.51,8.6,0,6.45-1.2,18.26-3.58,35.45-2.15,14.09-3.22,23.76-3.22,29.01,0,9.08,2.63,15.22,7.88,18.44,5.25,3.22,10.86,4.83,16.83,4.83,1.19-7.64,5.13-18.5,11.82-32.59,6.68-14.08,13.73-27.04,21.13-38.86,7.4-11.82,12.06-17.73,13.97-17.73,1.19,0,1.79,1.56,1.79,4.66s-.6,8.48-1.79,16.12c-.24,1.91-.78,6.39-1.61,13.43-.84,7.04-1.25,13.55-1.25,19.52,0,24.59,8.11,36.89,24.35,36.89,8.11,0,15.81-2.92,23.09-8.77,3.37-2.71,6.42-5.63,9.2-8.72,1.03,2.15,2.19,4.18,3.51,6.03,5.96,8.36,13.97,12.53,23.99,12.53s19.34-4.48,28.65-13.43c9.31-8.95,17.91-21.18,25.79-36.71,1.67,14.09,5.19,24.89,10.56,32.41,5.37,7.52,11.76,11.28,19.16,11.28,8.11,0,15.7-2.56,22.74-7.7,1.61-1.17,3.12-2.4,4.59-3.66.54,4.46,1.54,8.18,3.1,11,2.38,4.3,5.13,6.45,8.24,6.45,3.58,0,6.92-2.92,10.03-8.77,3.1-5.85,4.65-15.81,4.65-29.9v-5.37c10.74,13.37,23.33,24.83,37.78,34.38,14.44,9.55,27.4,14.32,38.86,14.32,5.01,0,8.65-.84,10.92-2.51,2.27-1.67,4.71-4.3,7.34-7.88-15.52-6.68-29.67-13.97-42.44-21.85-12.78-7.88-23.82-17.43-33.13-28.65ZM1024,540.7c8.11-13.84,16.77-25.01,25.97-33.48,9.19-8.47,16.53-12.71,22.02-12.71,2.15,0,3.76.78,4.84,2.33,1.07,1.56,1.61,3.4,1.61,5.55,0,7.4-5.49,14.5-16.47,21.31-10.99,6.8-23.64,12.48-37.96,17.01Z"/>
  <path class="cls-1" d="M1152.21,613.76c10.74,0,21.13-3.17,31.16-9.49,10.03-6.32,18.14-13.97,24.35-22.92,6.21-8.95,9.31-16.65,9.31-23.1s-2.27-10.38-6.8-12.53c-5.73,14.33-13.43,25.73-23.1,34.2-9.67,8.48-19.4,12.71-29.19,12.71-7.16,0-13.07-2.45-17.73-7.34-4.65-4.89-7.46-11.64-8.41-20.23,11.69-4.53,21.9-10.74,30.62-18.62,8.71-7.88,15.4-16.23,20.05-25.07,4.66-8.83,6.98-16.95,6.98-24.35,0-6.68-1.79-12-5.37-15.94-3.58-3.94-9.31-5.91-17.19-5.91-11.7,0-22.14,4.18-31.33,12.53-9.2,8.36-16.36,19.04-21.49,32.05-5.14,13.02-7.7,26.2-7.7,39.57,0,17.19,4.17,30.56,12.53,40.11,8.36,9.55,19.46,14.32,33.31,14.32ZM1143.79,510.62c5.85-10.74,12-16.11,18.45-16.11,3.58,0,5.37,2.03,5.37,6.09,0,3.82-1.73,8.84-5.19,15.04-3.47,6.21-7.94,12.18-13.43,17.91-5.49,5.73-10.98,9.91-16.47,12.53,1.67-12.89,5.43-24.71,11.28-35.45Z"/>
  <polygon class="cls-1" points="726.29 435.03 759.08 312.89 791.88 435.03 826.64 435.03 875.72 275.48 840.73 275.48 809.04 394.98 776.69 275.48 741.04 275.48 709.35 394.54 678.1 275.48 642.67 275.48 691.3 435.03 726.29 435.03"/>
  <path class="cls-1" d="M868.24,379.35c0,11.88,2.27,22.26,6.82,31.14,4.54,8.88,11.08,15.77,19.58,20.69,8.51,4.91,18.49,7.37,29.93,7.37,10.86,0,20.83-2.13,29.93-6.38,9.09-4.25,16.14-10.05,21.12-17.38l-19.81-16.28c-3.23,4.84-7.41,8.62-12.54,11.33-5.14,2.72-10.56,4.07-16.28,4.07-7.48,0-13.61-2.31-18.38-6.93-4.77-4.62-7.82-11.18-9.13-19.69h75.26c.58-3.52.88-7.85.88-12.98,0-11.15-2.13-20.83-6.38-29.05-4.26-8.22-10.31-14.56-18.15-19.04-7.85-4.47-16.98-6.71-27.4-6.71-11.01,0-20.69,2.5-29.05,7.48-8.36,4.99-14.85,11.99-19.47,21.02-4.62,9.02-6.93,19.48-6.93,31.36ZM907.52,348.87c4.18-4.33,9.43-6.49,15.73-6.49s11.33,2.2,15.07,6.6c3.74,4.4,5.61,10.42,5.61,18.05h-44.67c1.32-7.77,4.07-13.83,8.25-18.16Z"/>
  <polygon class="cls-1" points="770.09 758.74 699.45 641.45 660.06 641.45 660.06 801 689.99 801 689.99 684.8 760.19 801 799.58 801 799.58 641.45 770.09 641.45 770.09 758.74"/>
  <path class="cls-1" d="M926.77,740.26c0-11.15-2.13-20.83-6.38-29.05-4.26-8.22-10.31-14.56-18.15-19.04-7.85-4.47-16.98-6.71-27.4-6.71-11.01,0-20.69,2.5-29.05,7.48-8.36,4.99-14.85,11.99-19.47,21.02-4.62,9.02-6.93,19.48-6.93,31.36s2.27,22.26,6.82,31.14c4.54,8.88,11.08,15.77,19.58,20.69,8.51,4.91,18.49,7.37,29.93,7.37,10.86,0,20.83-2.13,29.93-6.38,9.09-4.25,16.14-10.05,21.12-17.38l-19.81-16.28c-3.23,4.84-7.41,8.62-12.54,11.33-5.14,2.72-10.56,4.07-16.28,4.07-7.48,0-13.61-2.31-18.38-6.93-4.77-4.62-7.82-11.18-9.13-19.69h75.26c.58-3.52.88-7.85.88-12.98ZM850.41,733c1.32-7.77,4.07-13.83,8.25-18.16,4.18-4.33,9.43-6.49,15.73-6.49s11.33,2.2,15.07,6.6c3.74,4.4,5.61,10.42,5.61,18.05h-44.67Z"/>
  <path class="cls-1" d="M1014.03,740.04c-4.92-2.2-12.22-4.91-21.9-8.14-4.55-1.47-8.66-2.86-12.32-4.18-3.67-1.32-6.31-2.6-7.92-3.85-1.62-1.25-2.42-2.82-2.42-4.73,0-2.93,1.39-5.28,4.18-7.04,2.78-1.76,6.45-2.64,11-2.64s9.43,1.14,14.63,3.41c5.21,2.28,9.87,5.25,13.98,8.91l16.28-19.81c-6.6-5.43-13.83-9.54-21.67-12.32-7.85-2.79-15.66-4.18-23.44-4.18-8.8,0-16.65,1.51-23.55,4.51-6.9,3.01-12.29,7.26-16.18,12.76-3.89,5.5-5.83,11.7-5.83,18.59,0,7.34,1.5,13.2,4.51,17.61,3,4.4,7.22,7.96,12.65,10.67,5.42,2.72,12.98,5.54,22.66,8.47.88.29,1.79.59,2.75.88.95.29,1.94.59,2.97.88,6.46,1.76,10.89,3.34,13.31,4.73,2.42,1.4,3.63,3.49,3.63,6.27,0,2.93-1.51,5.28-4.51,7.04s-6.93,2.64-11.77,2.64c-5.43,0-11.66-1.5-18.7-4.51-7.05-3.01-13.06-7.08-18.05-12.22l-15.84,20.47c7.34,6.9,15.48,11.99,24.43,15.3,8.95,3.3,18.27,4.95,27.94,4.95,9.1,0,17.2-1.54,24.32-4.62,7.12-3.08,12.65-7.33,16.61-12.76,3.96-5.43,5.94-11.59,5.94-18.49,0-7.77-1.73-13.94-5.17-18.48-3.45-4.55-7.63-7.92-12.54-10.12Z"/>
  <path class="cls-1" d="M1085.99,775.14c-1.84-3.15-2.75-7.3-2.75-12.43v-51.27h23.99v-22.45h-23.99v-34.77l-31.69,9.02v25.75h-16.07v22.45h16.07v54.8c0,12.47,3.01,21.97,9.02,28.5,6.01,6.53,15.11,9.79,27.29,9.79,6.3,0,12.98-1.25,20.02-3.74v-22.67c-4.69,1.18-8.44,1.76-11.22,1.76-5.28,0-8.84-1.58-10.67-4.73Z"/>
  <rect class="cls-1" x="1121.75" y="641.45" width="31.69" height="159.55"/>
  <polygon class="cls-1" points="1231.34 672.48 1265.23 641.45 1229.8 641.45 1206.91 672.48 1231.34 672.48"/>
  <path class="cls-1" d="M1244.98,775.8c-5.14,2.72-10.56,4.07-16.28,4.07-7.48,0-13.61-2.31-18.38-6.93-4.77-4.62-7.82-11.18-9.13-19.69h75.26c.58-3.52.88-7.85.88-12.98,0-11.15-2.13-20.83-6.38-29.05-4.26-8.22-10.31-14.56-18.15-19.04-7.85-4.47-16.98-6.71-27.4-6.71-11.01,0-20.69,2.5-29.05,7.48-8.36,4.99-14.85,11.99-19.47,21.02-4.62,9.02-6.93,19.48-6.93,31.36s2.27,22.26,6.82,31.14c4.54,8.88,11.08,15.77,19.58,20.69,8.51,4.91,18.49,7.37,29.93,7.37,10.86,0,20.83-2.13,29.93-6.38,9.09-4.25,16.14-10.05,21.12-17.38l-19.81-16.28c-3.23,4.84-7.41,8.62-12.54,11.33ZM1209.22,714.84c4.18-4.33,9.43-6.49,15.73-6.49s11.33,2.2,15.07,6.6c3.74,4.4,5.61,10.42,5.61,18.05h-44.67c1.32-7.77,4.07-13.83,8.25-18.16Z"/>
</svg>