<?xml version="1.0" encoding="UTF-8"?>
<svg id="Shapes" xmlns="http://www.w3.org/2000/svg" viewBox="0 0 465 400">
  <defs>
    <style>
      .cls-1 {
        fill: #61a60e;
      }
    </style>
  </defs>
  <path class="cls-1" d="M302.23,70.92c-2.09-2.08-4.59-3.39-7.44-4.13-7.98-2.07-16.13-3.06-24.32-3.82-12.64-1.18-25.3-1.62-37.98-1.61-12.67-.01-25.34.43-37.98,1.61-8.19.76-16.33,1.75-24.32,3.82-2.85.74-5.35,2.05-7.44,4.13-.56.55-.71,1.18-.68,1.93.11,3.32.24,6.64.25,9.97,0,.99.33,1.65,1.1,2.15.47.3.96.58,1.46.83.4.2.64.47.66.94.17,4.7.49,9.4.3,14.11-.25,5.87-1.32,11.65-2.05,17.46-.9,7.13-.53,14.15,1.27,21.11,1.13,4.35,2.7,8.54,4.1,12.8.38,1.14.43,2.24.11,3.4-.69,2.48-1.33,4.98-1.96,7.48-2.4,9.61-3.1,19.3-1.43,29.11,1,5.87,2.81,11.53,4.58,17.2,1.11,3.56,1.65,7.13.67,10.8-1.92,7.15-1.43,14.29.09,21.41,1.02,4.8,1.74,9.64,1.84,14.53.19,8.66.23,17.33.32,26,.02,1.51-.22,2.99-.78,4.39-1.27,3.23-2.61,6.44-3.89,9.67-1.2,3.02-2.47,6.03-3.15,9.21-.97,4.54.26,8.57,3.24,12.1.67.8,1.38,1.57,1.98,2.43,1.05,1.5,1.02,2.9,0,4.41-1.96,2.92-1.02,6.51,2.11,8.08,1.01.5,2.06.88,3.13,1.2,5.79,1.71,11.75,2.48,17.72,3.15,12.56,1.42,25.17,1.8,37.8,1.88.31,0,.61,0,.92,0,.31,0,.61,0,.92,0,12.63-.08,25.24-.46,37.8-1.88,5.98-.68,11.93-1.44,17.72-3.15,1.07-.32,2.13-.7,3.13-1.2,3.13-1.57,4.07-5.16,2.11-8.08-1.01-1.51-1.04-2.9,0-4.41.6-.85,1.31-1.63,1.98-2.43,2.98-3.52,4.21-7.55,3.24-12.1-.68-3.18-1.95-6.19-3.15-9.21-1.28-3.23-2.61-6.43-3.89-9.67-.55-1.4-.79-2.88-.78-4.39.09-8.67.13-17.33.32-26,.11-4.9.82-9.73,1.84-14.53,1.52-7.12,2-14.27.09-21.41-.98-3.67-.44-7.24.67-10.8,1.77-5.67,3.59-11.32,4.58-17.2,1.66-9.81.96-19.5-1.43-29.11-.62-2.5-1.27-4.99-1.96-7.48-.32-1.16-.27-2.26.11-3.4,1.4-4.26,2.98-8.45,4.1-12.8,1.8-6.96,2.17-13.98,1.27-21.11-.74-5.81-1.81-11.59-2.05-17.46-.2-4.71.13-9.41.3-14.11.02-.48.25-.74.66-.94.5-.25.99-.53,1.46-.83.77-.5,1.1-1.16,1.1-2.15.01-3.32.14-6.65.25-9.97.02-.75-.13-1.37-.68-1.93Z"/>
</svg>