<?xml version="1.0" encoding="UTF-8"?>
<svg xmlns="http://www.w3.org/2000/svg" viewBox="0 0 733.94 200">
  <defs>
    <style>
      .cls-1 {
        fill: #30261d;
      }

      .cls-2 {
        fill: #f07b00;
      }

      .cls-3 {
        fill: #ff8300;
      }
    </style>
  </defs>
  <g id="Box">
    <path class="cls-2" d="M689.92,200c24.32,0,44.03-19.71,44.03-44.03v-68.15c0-12.14-4.92-23.14-12.88-31.1h0s0,0,0,0c0,0-43.85-43.83-43.85-43.83h0c-7.96-7.96-18.95-12.88-31.09-12.88H43.98c-10.55,0-20.24,3.72-27.82,9.91C6.3,17.98,0,30.24,0,43.98v68.2c0,12.14,4.92,23.13,12.88,31.09,0,0,0,0,0,0l43.82,43.83h0s0,.01,0,.01c7.96,7.96,18.95,12.88,31.1,12.88h602.11Z"/>
    <rect class="cls-3" y="0" width="690.09" height="156.16" rx="44.03" ry="44.03"/>
  </g>
  <g id="Text">
    <g>
      <path class="cls-1" d="M84.45,39.75c5.44,5.52,8.15,13.59,8.15,24.2s-2.72,18.54-8.15,24.07c-5.44,5.52-13.2,8.29-23.28,8.29h-9.21v30.51h-18.81V31.46h28.01c10.08,0,17.84,2.76,23.28,8.29ZM69.98,76.05c2.37-2.72,3.55-6.75,3.55-12.1s-1.18-9.51-3.55-12.23c-2.37-2.72-5.79-4.08-10.26-4.08h-7.76v32.49h7.76c4.47,0,7.89-1.36,10.26-4.08Z"/>
      <path class="cls-1" d="M120.88,110.37h34.46v16.44h-53.27V31.46h52.48v16.44h-33.67v22.62h29.2v16.31h-29.2v23.54Z"/>
      <path class="cls-1" d="M192.03,92.49h-6.97v34.33h-18.81V31.46h28.41c10,0,17.6,2.59,22.82,7.76,5.22,5.17,7.83,12.76,7.83,22.75,0,13.85-4.95,22.8-14.86,26.83l18.94,38.01h-22.23l-15.12-34.33ZM185.06,76.44h7.5c4.56,0,7.98-1.16,10.26-3.49,2.28-2.32,3.42-6.03,3.42-11.11s-1.14-8.75-3.42-10.98c-2.28-2.24-5.7-3.35-10.26-3.35h-7.5v28.93Z"/>
      <path class="cls-1" d="M290.27,47.9h-33.67v27.75h28.8v16.44h-28.8v34.72h-18.81V31.46h52.48v16.44Z"/>
      <path class="cls-1" d="M303.49,116.16c-6.01-8.33-9.01-20.69-9.01-37.09s3-28.63,9.01-36.96c6-8.33,14.88-12.49,26.63-12.49s20.93,4.17,27.03,12.49c6.09,8.33,9.14,20.65,9.14,36.96s-3.05,28.76-9.14,37.09c-6.1,8.33-15.1,12.49-27.03,12.49s-20.63-4.16-26.63-12.49ZM343.07,104.26c2.76-5.3,4.14-13.7,4.14-25.19s-1.38-19.86-4.14-25.12c-2.76-5.26-7.04-7.89-12.82-7.89s-9.91,2.63-12.63,7.89c-2.72,5.26-4.08,13.63-4.08,25.12s1.36,19.99,4.08,25.25c2.72,5.26,6.93,7.89,12.63,7.89s10.06-2.65,12.82-7.96Z"/>
      <path class="cls-1" d="M403.51,92.49h-6.97v34.33h-18.81V31.46h28.41c10,0,17.6,2.59,22.82,7.76,5.22,5.17,7.83,12.76,7.83,22.75,0,13.85-4.95,22.8-14.86,26.83l18.94,38.01h-22.23l-15.12-34.33ZM396.54,76.44h7.5c4.56,0,7.98-1.16,10.26-3.49,2.28-2.32,3.42-6.03,3.42-11.11s-1.14-8.75-3.42-10.98c-2.28-2.24-5.7-3.35-10.26-3.35h-7.5v28.93Z"/>
      <path class="cls-1" d="M507.54,31.46h26.96v95.35h-17.49V57.5l-15.91,69.31h-18.41l-15.91-68.92v68.92h-17.49V31.46h26.96l15.65,71.02,15.65-71.02Z"/>
    </g>
  </g>
</svg>