<?xml version="1.0" encoding="UTF-8"?>
<svg id="Shapes" xmlns="http://www.w3.org/2000/svg" viewBox="0 0 465 400">
  <defs>
    <style>
      .cls-1 {
        fill: #99d9d9;
      }
    </style>
  </defs>
  <path class="cls-1" d="M327.04,133.84c-5.41-6.36-12.76-9.86-20.67-9.86h-31.47v-21.06c0-3.96-3.21-7.17-7.17-7.17h-130.45c-3.96,0-7.17,3.21-7.17,7.17v166.02c0,19.51,15.82,35.33,35.33,35.33h74.14c19.51,0,35.33-15.82,35.33-35.33v-9.74l10.97-2.65c21-5.09,37.12-24.19,41.09-48.66l7.49-46.25c1.63-10.05-1.14-20.43-7.4-27.79ZM309.84,157.65l-7.49,46.25c-2.32,14.32-11.3,25.75-22.35,28.43l-5.1,1.24v-84.67h31.47c.69,0,1.42.77,1.7,1.1,1.23,1.44,2.34,4.21,1.78,7.66Z"/>
</svg>