<?xml version="1.0" encoding="UTF-8"?>
<svg id="Shapes" xmlns="http://www.w3.org/2000/svg" viewBox="0 0 465 400">
  <defs>
    <style>
      .cls-1 {
        fill: #ff8300;
      }
    </style>
  </defs>
  <path class="cls-1" d="M379.9,232.32h-6.72s-16.93-82.17-16.93-82.17c-.58-2.79-3.03-4.79-5.88-4.79h-89.59c-2.85,0-5.31,2-5.88,4.79l-16.93,82.17h-4.22s-2.5,0-2.5,0h-4.22s-16.93-82.17-16.93-82.17c-.58-2.79-3.03-4.79-5.88-4.79h-89.59c-2.85,0-5.31,2-5.88,4.79l-16.93,82.17h-6.72c-1.77,0-3.21,1.44-3.21,3.21v15.9c0,1.77,1.44,3.21,3.21,3.21h146.15s2.5,0,2.5,0h146.15c1.77,0,3.21-1.44,3.21-3.21v-15.9c0-1.77-1.44-3.21-3.21-3.21Z"/>
</svg>