<?xml version="1.0" encoding="UTF-8"?>
<svg xmlns="http://www.w3.org/2000/svg" viewBox="0 0 434.48 200">
  <defs>
    <style>
      .cls-1 {
        fill: #30261d;
      }

      .cls-2 {
        fill: #8ec9c9;
      }

      .cls-3 {
        fill: #99d9d9;
      }
    </style>
  </defs>
  <g id="Box">
    <path class="cls-2" d="M390.45,200c24.32,0,44.03-19.71,44.03-44.03v-68.15c0-12.14-4.92-23.14-12.88-31.1h0s0,0,0,0l-43.85-43.83h0c-7.96-7.96-18.95-12.88-31.09-12.88H43.98c-10.55,0-20.24,3.72-27.82,9.91C6.3,17.98,0,30.24,0,43.98v68.2c0,12.14,4.92,23.13,12.88,31.09,0,0,0,0,0,0l43.82,43.83h0s0,.01,0,.01c7.96,7.96,18.95,12.88,31.1,12.88h302.64Z"/>
    <rect class="cls-3" width="390.62" height="156.16" rx="44.03" ry="44.03"/>
  </g>
  <g id="Text">
    <g>
      <path class="cls-1" d="M26.63,118l8.94-14.47c3.16,2.89,6.29,5.06,9.4,6.51,3.11,1.45,6.42,2.17,9.93,2.17,4.29,0,7.67-1.01,10.13-3.02,2.45-2.02,3.68-4.65,3.68-7.89,0-2.63-.9-4.84-2.7-6.64-1.8-1.8-4.93-3.75-9.4-5.85-6.84-3.16-12.15-6.14-15.91-8.94-3.77-2.8-6.53-5.85-8.29-9.14-1.75-3.29-2.63-7.25-2.63-11.9,0-9.12,2.8-16.26,8.42-21.44,5.61-5.17,13.02-7.76,22.23-7.76,4.91,0,9.38.7,13.42,2.1,4.03,1.4,8.02,3.33,11.97,5.79l-8.55,14.73c-4.82-4.21-10.22-6.31-16.18-6.31-3.86,0-6.88.92-9.07,2.76-2.19,1.84-3.29,4.43-3.29,7.76,0,2.54.88,4.73,2.63,6.58,1.75,1.84,5,3.81,9.73,5.92,9.64,4.3,16.51,8.73,20.58,13.28,4.08,4.56,6.12,10.26,6.12,17.1,0,6.05-1.38,11.29-4.14,15.72-2.76,4.43-6.58,7.81-11.44,10.13-4.87,2.32-10.37,3.49-16.51,3.49-10.26,0-19.95-3.55-29.07-10.65Z"/>
      <path class="cls-1" d="M143.02,126.81l-4.21-18.41h-24.73l-4.21,18.41h-20.52l26.83-95.35h21.31l27.09,95.35h-21.57ZM117.77,91.96h17.36l-8.68-38.14-8.68,38.14Z"/>
      <path class="cls-1" d="M224.43,47.9h-33.67v27.75h28.8v16.44h-28.8v34.72h-18.81V31.46h52.48v16.44Z"/>
      <path class="cls-1" d="M252.18,110.37h34.46v16.44h-53.26V31.46h52.48v16.44h-33.67v22.62h29.2v16.31h-29.2v23.54Z"/>
    </g>
  </g>
</svg>